<?xml version="1.0" encoding="utf-8" standalone="no"?>
<!DOCTYPE svg PUBLIC "-//W3C//DTD SVG 1.1//EN"
  "http://www.w3.org/Graphics/SVG/1.1/DTD/svg11.dtd">
<svg xmlns:xlink="http://www.w3.org/1999/xlink" width="460.8pt" height="345.6pt" viewBox="0 0 460.8 345.6" xmlns="http://www.w3.org/2000/svg" version="1.1">
 <metadata>
  <rdf:RDF xmlns:dc="http://purl.org/dc/elements/1.1/" xmlns:cc="http://creativecommons.org/ns#" xmlns:rdf="http://www.w3.org/1999/02/22-rdf-syntax-ns#">
   <cc:Work>
    <dc:type rdf:resource="http://purl.org/dc/dcmitype/StillImage"/>
    <dc:date>2023-06-14T00:36:00.251704</dc:date>
    <dc:format>image/svg+xml</dc:format>
    <dc:creator>
     <cc:Agent>
      <dc:title>Matplotlib v3.7.1, https://matplotlib.org/</dc:title>
     </cc:Agent>
    </dc:creator>
   </cc:Work>
  </rdf:RDF>
 </metadata>
 <defs>
  <style type="text/css">*{stroke-linejoin: round; stroke-linecap: butt}</style>
 </defs>
 <g id="figure_1">
  <g id="patch_1">
   <path d="M 0 345.6 
L 460.8 345.6 
L 460.8 0 
L 0 0 
z
" style="fill: #ffffff"/>
  </g>
  <g id="axes_1">
   <g id="patch_2">
    <path d="M 0 293.76 
L 460.8 293.76 
L 460.8 3.456 
L 0 3.456 
z
" style="fill: #ffffff"/>
   </g>
   <g id="matplotlib.axis_1">
    <g id="xtick_1">
     <g id="line2d_1">
      <path d="M 114.058428 293.76 
L 114.058428 3.456 
" clip-path="url(#pad6e8462c6)" style="fill: none; stroke: #b0b0b0; stroke-width: 0.8; stroke-linecap: square"/>
     </g>
     <g id="line2d_2">
      <defs>
       <path id="mad647e277e" d="M 0 0 
L 0 3.5 
" style="stroke: #000000; stroke-width: 0.8"/>
      </defs>
      <g>
       <use xlink:href="#mad647e277e" x="114.058428" y="293.76" style="stroke: #000000; stroke-width: 0.8"/>
      </g>
     </g>
     <g id="text_1">
      <!-- -5 -->
      <g transform="translate(104.088115 315.956875) scale(0.2 -0.2)">
       <defs>
        <path id="DejaVuSans-2d" d="M 313 2009 
L 1997 2009 
L 1997 1497 
L 313 1497 
L 313 2009 
z
" transform="scale(0.015625)"/>
        <path id="DejaVuSans-35" d="M 691 4666 
L 3169 4666 
L 3169 4134 
L 1269 4134 
L 1269 2991 
Q 1406 3038 1543 3061 
Q 1681 3084 1819 3084 
Q 2600 3084 3056 2656 
Q 3513 2228 3513 1497 
Q 3513 744 3044 326 
Q 2575 -91 1722 -91 
Q 1428 -91 1123 -41 
Q 819 9 494 109 
L 494 744 
Q 775 591 1075 516 
Q 1375 441 1709 441 
Q 2250 441 2565 725 
Q 2881 1009 2881 1497 
Q 2881 1984 2565 2268 
Q 2250 2553 1709 2553 
Q 1456 2553 1204 2497 
Q 953 2441 691 2322 
L 691 4666 
z
" transform="scale(0.015625)"/>
       </defs>
       <use xlink:href="#DejaVuSans-2d"/>
       <use xlink:href="#DejaVuSans-35" x="36.083984"/>
      </g>
     </g>
    </g>
    <g id="xtick_2">
     <g id="line2d_3">
      <path d="M 228.281389 293.76 
L 228.281389 3.456 
" clip-path="url(#pad6e8462c6)" style="fill: none; stroke: #b0b0b0; stroke-width: 0.8; stroke-linecap: square"/>
     </g>
     <g id="line2d_4">
      <g>
       <use xlink:href="#mad647e277e" x="228.281389" y="293.76" style="stroke: #000000; stroke-width: 0.8"/>
      </g>
     </g>
     <g id="text_2">
      <!-- -2 -->
      <g transform="translate(218.311077 315.956875) scale(0.2 -0.2)">
       <defs>
        <path id="DejaVuSans-32" d="M 1228 531 
L 3431 531 
L 3431 0 
L 469 0 
L 469 531 
Q 828 903 1448 1529 
Q 2069 2156 2228 2338 
Q 2531 2678 2651 2914 
Q 2772 3150 2772 3378 
Q 2772 3750 2511 3984 
Q 2250 4219 1831 4219 
Q 1534 4219 1204 4116 
Q 875 4013 500 3803 
L 500 4441 
Q 881 4594 1212 4672 
Q 1544 4750 1819 4750 
Q 2544 4750 2975 4387 
Q 3406 4025 3406 3419 
Q 3406 3131 3298 2873 
Q 3191 2616 2906 2266 
Q 2828 2175 2409 1742 
Q 1991 1309 1228 531 
z
" transform="scale(0.015625)"/>
       </defs>
       <use xlink:href="#DejaVuSans-2d"/>
       <use xlink:href="#DejaVuSans-32" x="36.083984"/>
      </g>
     </g>
    </g>
    <g id="xtick_3">
     <g id="line2d_5">
      <path d="M 342.504351 293.76 
L 342.504351 3.456 
" clip-path="url(#pad6e8462c6)" style="fill: none; stroke: #b0b0b0; stroke-width: 0.8; stroke-linecap: square"/>
     </g>
     <g id="line2d_6">
      <g>
       <use xlink:href="#mad647e277e" x="342.504351" y="293.76" style="stroke: #000000; stroke-width: 0.8"/>
      </g>
     </g>
     <g id="text_3">
      <!-- 1 -->
      <g transform="translate(336.141851 315.956875) scale(0.2 -0.2)">
       <defs>
        <path id="DejaVuSans-31" d="M 794 531 
L 1825 531 
L 1825 4091 
L 703 3866 
L 703 4441 
L 1819 4666 
L 2450 4666 
L 2450 531 
L 3481 531 
L 3481 0 
L 794 0 
L 794 531 
z
" transform="scale(0.015625)"/>
       </defs>
       <use xlink:href="#DejaVuSans-31"/>
      </g>
     </g>
    </g>
    <g id="xtick_4">
     <g id="line2d_7">
      <path d="M 456.727312 293.76 
L 456.727312 3.456 
" clip-path="url(#pad6e8462c6)" style="fill: none; stroke: #b0b0b0; stroke-width: 0.8; stroke-linecap: square"/>
     </g>
     <g id="line2d_8">
      <g>
       <use xlink:href="#mad647e277e" x="456.727312" y="293.76" style="stroke: #000000; stroke-width: 0.8"/>
      </g>
     </g>
     <g id="text_4">
      <!-- 4 -->
      <g transform="translate(450.364812 315.956875) scale(0.2 -0.2)">
       <defs>
        <path id="DejaVuSans-34" d="M 2419 4116 
L 825 1625 
L 2419 1625 
L 2419 4116 
z
M 2253 4666 
L 3047 4666 
L 3047 1625 
L 3713 1625 
L 3713 1100 
L 3047 1100 
L 3047 0 
L 2419 0 
L 2419 1100 
L 313 1100 
L 313 1709 
L 2253 4666 
z
" transform="scale(0.015625)"/>
       </defs>
       <use xlink:href="#DejaVuSans-34"/>
      </g>
     </g>
    </g>
    <g id="text_5">
     <!-- log10 of Df -->
     <g transform="translate(175.214063 339.313125) scale(0.2 -0.2)">
      <defs>
       <path id="DejaVuSans-6c" d="M 603 4863 
L 1178 4863 
L 1178 0 
L 603 0 
L 603 4863 
z
" transform="scale(0.015625)"/>
       <path id="DejaVuSans-6f" d="M 1959 3097 
Q 1497 3097 1228 2736 
Q 959 2375 959 1747 
Q 959 1119 1226 758 
Q 1494 397 1959 397 
Q 2419 397 2687 759 
Q 2956 1122 2956 1747 
Q 2956 2369 2687 2733 
Q 2419 3097 1959 3097 
z
M 1959 3584 
Q 2709 3584 3137 3096 
Q 3566 2609 3566 1747 
Q 3566 888 3137 398 
Q 2709 -91 1959 -91 
Q 1206 -91 779 398 
Q 353 888 353 1747 
Q 353 2609 779 3096 
Q 1206 3584 1959 3584 
z
" transform="scale(0.015625)"/>
       <path id="DejaVuSans-67" d="M 2906 1791 
Q 2906 2416 2648 2759 
Q 2391 3103 1925 3103 
Q 1463 3103 1205 2759 
Q 947 2416 947 1791 
Q 947 1169 1205 825 
Q 1463 481 1925 481 
Q 2391 481 2648 825 
Q 2906 1169 2906 1791 
z
M 3481 434 
Q 3481 -459 3084 -895 
Q 2688 -1331 1869 -1331 
Q 1566 -1331 1297 -1286 
Q 1028 -1241 775 -1147 
L 775 -588 
Q 1028 -725 1275 -790 
Q 1522 -856 1778 -856 
Q 2344 -856 2625 -561 
Q 2906 -266 2906 331 
L 2906 616 
Q 2728 306 2450 153 
Q 2172 0 1784 0 
Q 1141 0 747 490 
Q 353 981 353 1791 
Q 353 2603 747 3093 
Q 1141 3584 1784 3584 
Q 2172 3584 2450 3431 
Q 2728 3278 2906 2969 
L 2906 3500 
L 3481 3500 
L 3481 434 
z
" transform="scale(0.015625)"/>
       <path id="DejaVuSans-30" d="M 2034 4250 
Q 1547 4250 1301 3770 
Q 1056 3291 1056 2328 
Q 1056 1369 1301 889 
Q 1547 409 2034 409 
Q 2525 409 2770 889 
Q 3016 1369 3016 2328 
Q 3016 3291 2770 3770 
Q 2525 4250 2034 4250 
z
M 2034 4750 
Q 2819 4750 3233 4129 
Q 3647 3509 3647 2328 
Q 3647 1150 3233 529 
Q 2819 -91 2034 -91 
Q 1250 -91 836 529 
Q 422 1150 422 2328 
Q 422 3509 836 4129 
Q 1250 4750 2034 4750 
z
" transform="scale(0.015625)"/>
       <path id="DejaVuSans-20" transform="scale(0.015625)"/>
       <path id="DejaVuSans-66" d="M 2375 4863 
L 2375 4384 
L 1825 4384 
Q 1516 4384 1395 4259 
Q 1275 4134 1275 3809 
L 1275 3500 
L 2222 3500 
L 2222 3053 
L 1275 3053 
L 1275 0 
L 697 0 
L 697 3053 
L 147 3053 
L 147 3500 
L 697 3500 
L 697 3744 
Q 697 4328 969 4595 
Q 1241 4863 1831 4863 
L 2375 4863 
z
" transform="scale(0.015625)"/>
       <path id="DejaVuSans-44" d="M 1259 4147 
L 1259 519 
L 2022 519 
Q 2988 519 3436 956 
Q 3884 1394 3884 2338 
Q 3884 3275 3436 3711 
Q 2988 4147 2022 4147 
L 1259 4147 
z
M 628 4666 
L 1925 4666 
Q 3281 4666 3915 4102 
Q 4550 3538 4550 2338 
Q 4550 1131 3912 565 
Q 3275 0 1925 0 
L 628 0 
L 628 4666 
z
" transform="scale(0.015625)"/>
      </defs>
      <use xlink:href="#DejaVuSans-6c"/>
      <use xlink:href="#DejaVuSans-6f" x="27.783203"/>
      <use xlink:href="#DejaVuSans-67" x="88.964844"/>
      <use xlink:href="#DejaVuSans-31" x="152.441406"/>
      <use xlink:href="#DejaVuSans-30" x="216.064453"/>
      <use xlink:href="#DejaVuSans-20" x="279.6875"/>
      <use xlink:href="#DejaVuSans-6f" x="311.474609"/>
      <use xlink:href="#DejaVuSans-66" x="372.65625"/>
      <use xlink:href="#DejaVuSans-20" x="407.861328"/>
      <use xlink:href="#DejaVuSans-44" x="439.648438"/>
      <use xlink:href="#DejaVuSans-66" x="516.650391"/>
     </g>
    </g>
   </g>
   <g id="matplotlib.axis_2">
    <g id="ytick_1">
     <g id="line2d_9">
      <path d="M 0 293.76 
L 460.8 293.76 
" clip-path="url(#pad6e8462c6)" style="fill: none; stroke: #b0b0b0; stroke-width: 0.8; stroke-linecap: square"/>
     </g>
     <g id="line2d_10">
      <defs>
       <path id="m543acc796f" d="M 0 0 
L -3.5 0 
" style="stroke: #000000; stroke-width: 0.8"/>
      </defs>
      <g>
       <use xlink:href="#m543acc796f" x="0" y="293.76" style="stroke: #000000; stroke-width: 0.8"/>
      </g>
     </g>
    </g>
    <g id="ytick_2">
     <g id="line2d_11">
      <path d="M 0 236.274059 
L 460.8 236.274059 
" clip-path="url(#pad6e8462c6)" style="fill: none; stroke: #b0b0b0; stroke-width: 0.8; stroke-linecap: square"/>
     </g>
     <g id="line2d_12">
      <g>
       <use xlink:href="#m543acc796f" x="0" y="236.274059" style="stroke: #000000; stroke-width: 0.8"/>
      </g>
     </g>
    </g>
    <g id="ytick_3">
     <g id="line2d_13">
      <path d="M 0 178.788119 
L 460.8 178.788119 
" clip-path="url(#pad6e8462c6)" style="fill: none; stroke: #b0b0b0; stroke-width: 0.8; stroke-linecap: square"/>
     </g>
     <g id="line2d_14">
      <g>
       <use xlink:href="#m543acc796f" x="0" y="178.788119" style="stroke: #000000; stroke-width: 0.8"/>
      </g>
     </g>
    </g>
    <g id="ytick_4">
     <g id="line2d_15">
      <path d="M 0 121.302178 
L 460.8 121.302178 
" clip-path="url(#pad6e8462c6)" style="fill: none; stroke: #b0b0b0; stroke-width: 0.8; stroke-linecap: square"/>
     </g>
     <g id="line2d_16">
      <g>
       <use xlink:href="#m543acc796f" x="0" y="121.302178" style="stroke: #000000; stroke-width: 0.8"/>
      </g>
     </g>
    </g>
    <g id="ytick_5">
     <g id="line2d_17">
      <path d="M 0 63.816238 
L 460.8 63.816238 
" clip-path="url(#pad6e8462c6)" style="fill: none; stroke: #b0b0b0; stroke-width: 0.8; stroke-linecap: square"/>
     </g>
     <g id="line2d_18">
      <g>
       <use xlink:href="#m543acc796f" x="0" y="63.816238" style="stroke: #000000; stroke-width: 0.8"/>
      </g>
     </g>
    </g>
    <g id="ytick_6">
     <g id="line2d_19">
      <path d="M 0 6.330297 
L 460.8 6.330297 
" clip-path="url(#pad6e8462c6)" style="fill: none; stroke: #b0b0b0; stroke-width: 0.8; stroke-linecap: square"/>
     </g>
     <g id="line2d_20">
      <g>
       <use xlink:href="#m543acc796f" x="0" y="6.330297" style="stroke: #000000; stroke-width: 0.8"/>
      </g>
     </g>
    </g>
   </g>
   <g id="line2d_21">
    <path d="M 266.373948 293.76 
L 266.373948 286.574257 
L 275.065003 286.574257 
L 275.065003 279.388515 
L 275.174392 279.388515 
L 275.174392 272.202772 
L 278.792539 272.202772 
L 278.792539 265.01703 
L 280.726364 265.01703 
L 280.726364 257.831287 
L 280.738467 257.831287 
L 280.738467 250.645545 
L 281.49356 250.645545 
L 281.49356 243.459802 
L 282.338204 243.459802 
L 282.338204 236.274059 
L 282.686651 236.274059 
L 282.686651 229.088317 
L 287.704604 229.088317 
L 287.704604 221.902574 
L 289.085026 221.902574 
L 289.085026 214.716832 
L 289.70884 214.716832 
L 289.70884 207.531089 
L 290.934004 207.531089 
L 290.934004 200.345347 
L 291.67523 200.345347 
L 291.67523 193.159604 
L 291.783997 193.159604 
L 291.783997 185.973861 
L 293.695902 185.973861 
L 293.695902 178.788119 
L 294.308001 178.788119 
L 294.308001 171.602376 
L 295.637249 171.602376 
L 295.637249 164.416634 
L 297.025256 164.416634 
L 297.025256 157.230891 
L 298.978172 157.230891 
L 298.978172 150.045149 
L 299.018017 150.045149 
L 299.018017 142.859406 
L 299.643397 142.859406 
L 299.643397 135.673663 
L 300.563176 135.673663 
L 300.563176 128.487921 
L 300.746109 128.487921 
L 300.746109 121.302178 
L 300.958869 121.302178 
L 300.958869 114.116436 
L 301.410352 114.116436 
L 301.410352 106.930693 
L 303.050927 106.930693 
L 303.050927 99.74495 
L 303.564686 99.74495 
L 303.564686 92.559208 
L 303.726357 92.559208 
L 303.726357 85.373465 
L 304.608371 85.373465 
L 304.608371 78.187723 
L 304.667729 78.187723 
L 304.667729 71.00198 
L 307.994084 71.00198 
L 307.994084 63.816238 
L 308.72433 63.816238 
L 308.72433 56.630495 
L 309.752801 56.630495 
L 309.752801 49.444752 
L 311.640585 49.444752 
L 311.640585 42.25901 
L 311.90973 42.25901 
L 311.90973 35.073267 
L 315.429365 35.073267 
L 315.429365 27.887525 
L 318.789544 27.887525 
L 318.789544 20.701782 
L 322.696743 20.701782 
L 322.696743 13.51604 
L 330.400352 13.51604 
L 330.400352 6.330297 
L 330.400352 6.330297 
L 330.400352 6.330297 
L 460.8 6.330297 
" clip-path="url(#pad6e8462c6)" style="fill: none; stroke: #ff0000; stroke-width: 3; stroke-linecap: square"/>
   </g>
   <g id="line2d_22">
    <path d="M 278.910405 293.76 
L 278.910405 286.574257 
L 280.726364 286.574257 
L 280.726364 279.388515 
L 280.856776 279.388515 
L 280.856776 272.202772 
L 282.634177 272.202772 
L 282.634177 265.01703 
L 285.997805 265.01703 
L 285.997805 257.831287 
L 287.821715 257.831287 
L 287.821715 250.645545 
L 293.695902 250.645545 
L 293.695902 243.459802 
L 294.268408 243.459802 
L 294.268408 236.274059 
L 294.308001 236.274059 
L 294.308001 229.088317 
L 294.366847 229.088317 
L 294.366847 221.902574 
L 297.025256 221.902574 
L 297.025256 214.716832 
L 298.989382 214.716832 
L 298.989382 207.531089 
L 299.643397 207.531089 
L 299.643397 200.345347 
L 300.950189 200.345347 
L 300.950189 193.159604 
L 302.578914 193.159604 
L 302.578914 185.973861 
L 302.696067 185.973861 
L 302.696067 178.788119 
L 302.883919 178.788119 
L 302.883919 171.602376 
L 303.378957 171.602376 
L 303.378957 164.416634 
L 304.065473 164.416634 
L 304.065473 157.230891 
L 304.667729 157.230891 
L 304.667729 150.045149 
L 305.924496 150.045149 
L 305.924496 142.859406 
L 307.85787 142.859406 
L 307.85787 135.673663 
L 308.933687 135.673663 
L 308.933687 128.487921 
L 310.572992 128.487921 
L 310.572992 121.302178 
L 311.053827 121.302178 
L 311.053827 114.116436 
L 311.962299 114.116436 
L 311.962299 106.930693 
L 312.579227 106.930693 
L 312.579227 99.74495 
L 315.252612 99.74495 
L 315.252612 92.559208 
L 315.429365 92.559208 
L 315.429365 85.373465 
L 319.324984 85.373465 
L 319.324984 78.187723 
L 322.478753 78.187723 
L 322.478753 71.00198 
L 322.696743 71.00198 
L 322.696743 63.816238 
L 330.208213 63.816238 
L 330.208213 56.630495 
L 330.400352 56.630495 
L 330.400352 49.444752 
L 330.663717 49.444752 
L 330.663717 42.25901 
L 334.523559 42.25901 
L 334.523559 35.073267 
L 338.727898 35.073267 
L 338.727898 27.887525 
L 338.868049 27.887525 
L 338.868049 20.701782 
L 340.057573 20.701782 
L 340.057573 13.51604 
L 346.391883 13.51604 
L 346.391883 6.330297 
L 346.391883 6.330297 
L 346.391883 6.330297 
L 460.8 6.330297 
" clip-path="url(#pad6e8462c6)" style="fill: none; stroke: #00bfbf; stroke-width: 1.5; stroke-linecap: square"/>
   </g>
   <g id="line2d_23">
    <path d="M 278.910405 293.76 
L 278.910405 286.574257 
L 280.726364 286.574257 
L 280.726364 279.388515 
L 280.856776 279.388515 
L 280.856776 272.202772 
L 282.634177 272.202772 
L 282.634177 265.01703 
L 285.997805 265.01703 
L 285.997805 257.831287 
L 287.821715 257.831287 
L 287.821715 250.645545 
L 293.695902 250.645545 
L 293.695902 243.459802 
L 294.268408 243.459802 
L 294.268408 236.274059 
L 294.308001 236.274059 
L 294.308001 229.088317 
L 294.366847 229.088317 
L 294.366847 221.902574 
L 297.025256 221.902574 
L 297.025256 214.716832 
L 298.989382 214.716832 
L 298.989382 207.531089 
L 299.643397 207.531089 
L 299.643397 200.345347 
L 300.950189 200.345347 
L 300.950189 193.159604 
L 301.156335 193.159604 
L 301.156335 185.973861 
L 302.402988 185.973861 
L 302.402988 178.788119 
L 302.578914 178.788119 
L 302.578914 171.602376 
L 302.883919 171.602376 
L 302.883919 164.416634 
L 303.249046 164.416634 
L 303.249046 157.230891 
L 304.667729 157.230891 
L 304.667729 150.045149 
L 305.924496 150.045149 
L 305.924496 142.859406 
L 306.076252 142.859406 
L 306.076252 135.673663 
L 307.85787 135.673663 
L 307.85787 128.487921 
L 308.933687 128.487921 
L 308.933687 121.302178 
L 310.572992 121.302178 
L 310.572992 114.116436 
L 310.757067 114.116436 
L 310.757067 106.930693 
L 311.053827 106.930693 
L 311.053827 99.74495 
L 311.962299 99.74495 
L 311.962299 92.559208 
L 312.579227 92.559208 
L 312.579227 85.373465 
L 315.252612 85.373465 
L 315.252612 78.187723 
L 315.429365 78.187723 
L 315.429365 71.00198 
L 319.324984 71.00198 
L 319.324984 63.816238 
L 321.906832 63.816238 
L 321.906832 56.630495 
L 322.696743 56.630495 
L 322.696743 49.444752 
L 325.226287 49.444752 
L 325.226287 42.25901 
L 330.208213 42.25901 
L 330.208213 35.073267 
L 330.400352 35.073267 
L 330.400352 27.887525 
L 330.440809 27.887525 
L 330.440809 20.701782 
L 340.057573 20.701782 
L 340.057573 13.51604 
L 340.523504 13.51604 
L 340.523504 6.330297 
L 340.523504 6.330297 
L 340.523504 6.330297 
L 460.8 6.330297 
" clip-path="url(#pad6e8462c6)" style="fill: none; stroke: #bf00bf; stroke-width: 1.5; stroke-linecap: square"/>
   </g>
   <g id="line2d_24">
    <path d="M 278.910405 293.76 
L 278.910405 286.574257 
L 280.726364 286.574257 
L 280.726364 279.388515 
L 280.856776 279.388515 
L 280.856776 272.202772 
L 282.470602 272.202772 
L 282.470602 265.01703 
L 282.634177 265.01703 
L 282.634177 257.831287 
L 285.997805 257.831287 
L 285.997805 250.645545 
L 293.695902 250.645545 
L 293.695902 243.459802 
L 294.268408 243.459802 
L 294.268408 236.274059 
L 294.308001 236.274059 
L 294.308001 229.088317 
L 294.366847 229.088317 
L 294.366847 221.902574 
L 295.648854 221.902574 
L 295.648854 214.716832 
L 297.025256 214.716832 
L 297.025256 207.531089 
L 299.643397 207.531089 
L 299.643397 200.345347 
L 300.776037 200.345347 
L 300.776037 193.159604 
L 300.950189 193.159604 
L 300.950189 185.973861 
L 302.402988 185.973861 
L 302.402988 178.788119 
L 302.578914 178.788119 
L 302.578914 171.602376 
L 302.883919 171.602376 
L 302.883919 164.416634 
L 303.232885 164.416634 
L 303.232885 157.230891 
L 303.47712 157.230891 
L 303.47712 150.045149 
L 303.928806 150.045149 
L 303.928806 142.859406 
L 304.667729 142.859406 
L 304.667729 135.673663 
L 306.076252 135.673663 
L 306.076252 128.487921 
L 307.85787 128.487921 
L 307.85787 121.302178 
L 308.482445 121.302178 
L 308.482445 114.116436 
L 308.933687 114.116436 
L 308.933687 106.930693 
L 310.572992 106.930693 
L 310.572992 99.74495 
L 310.757067 99.74495 
L 310.757067 92.559208 
L 311.053827 92.559208 
L 311.053827 85.373465 
L 311.962299 85.373465 
L 311.962299 78.187723 
L 312.54329 78.187723 
L 312.54329 71.00198 
L 312.579227 71.00198 
L 312.579227 63.816238 
L 315.252612 63.816238 
L 315.252612 56.630495 
L 315.429365 56.630495 
L 315.429365 49.444752 
L 321.000693 49.444752 
L 321.000693 42.25901 
L 322.696743 42.25901 
L 322.696743 35.073267 
L 324.870648 35.073267 
L 324.870648 27.887525 
L 330.400352 27.887525 
L 330.400352 20.701782 
L 334.211625 20.701782 
L 334.211625 13.51604 
L 340.057573 13.51604 
L 340.057573 6.330297 
L 340.057573 6.330297 
L 340.057573 6.330297 
L 460.8 6.330297 
" clip-path="url(#pad6e8462c6)" style="fill: none; stroke: #000000; stroke-width: 1.5; stroke-linecap: square"/>
   </g>
   <g id="line2d_25">
    <path d="M 270.240888 293.76 
L 270.240888 286.574257 
L 280.205523 286.574257 
L 280.205523 279.388515 
L 280.726364 279.388515 
L 280.726364 272.202772 
L 280.757956 272.202772 
L 280.757956 265.01703 
L 281.25481 265.01703 
L 281.25481 257.831287 
L 282.130114 257.831287 
L 282.130114 250.645545 
L 290.953346 250.645545 
L 290.953346 243.459802 
L 293.695902 243.459802 
L 293.695902 236.274059 
L 294.308001 236.274059 
L 294.308001 229.088317 
L 294.366847 229.088317 
L 294.366847 221.902574 
L 295.648854 221.902574 
L 295.648854 214.716832 
L 295.900716 214.716832 
L 295.900716 207.531089 
L 297.025256 207.531089 
L 297.025256 200.345347 
L 298.979537 200.345347 
L 298.979537 193.159604 
L 299.643397 193.159604 
L 299.643397 185.973861 
L 300.776037 185.973861 
L 300.776037 178.788119 
L 302.402988 178.788119 
L 302.402988 171.602376 
L 302.578914 171.602376 
L 302.578914 164.416634 
L 303.144307 164.416634 
L 303.144307 157.230891 
L 303.232885 157.230891 
L 303.232885 150.045149 
L 303.47712 150.045149 
L 303.47712 142.859406 
L 303.928806 142.859406 
L 303.928806 135.673663 
L 304.667729 135.673663 
L 304.667729 128.487921 
L 304.796355 128.487921 
L 304.796355 121.302178 
L 306.076252 121.302178 
L 306.076252 114.116436 
L 307.809636 114.116436 
L 307.809636 106.930693 
L 308.186522 106.930693 
L 308.186522 99.74495 
L 308.482445 99.74495 
L 308.482445 92.559208 
L 308.933687 92.559208 
L 308.933687 85.373465 
L 310.50025 85.373465 
L 310.50025 78.187723 
L 311.053827 78.187723 
L 311.053827 71.00198 
L 311.833284 71.00198 
L 311.833284 63.816238 
L 311.94096 63.816238 
L 311.94096 56.630495 
L 311.962299 56.630495 
L 311.962299 49.444752 
L 312.579227 49.444752 
L 312.579227 42.25901 
L 315.252612 42.25901 
L 315.252612 35.073267 
L 315.429365 35.073267 
L 315.429365 27.887525 
L 322.696743 27.887525 
L 322.696743 20.701782 
L 327.404135 20.701782 
L 327.404135 13.51604 
L 330.400352 13.51604 
L 330.400352 6.330297 
L 330.400352 6.330297 
L 330.400352 6.330297 
L 460.8 6.330297 
" clip-path="url(#pad6e8462c6)" style="fill: none; stroke: #00bfbf; stroke-width: 1.5; stroke-linecap: square"/>
   </g>
   <g id="line2d_26">
    <path d="M 266.373959 293.76 
L 266.373959 286.574257 
L 275.065019 286.574257 
L 275.065019 279.388515 
L 275.174421 279.388515 
L 275.174421 272.202772 
L 278.792543 272.202772 
L 278.792543 265.01703 
L 280.726364 265.01703 
L 280.726364 257.831287 
L 280.738471 257.831287 
L 280.738471 250.645545 
L 281.493641 250.645545 
L 281.493641 243.459802 
L 282.338311 243.459802 
L 282.338311 236.274059 
L 282.686714 236.274059 
L 282.686714 229.088317 
L 287.704627 229.088317 
L 287.704627 221.902574 
L 289.085039 221.902574 
L 289.085039 214.716832 
L 289.708848 214.716832 
L 289.708848 207.531089 
L 290.934012 207.531089 
L 290.934012 200.345347 
L 291.675245 200.345347 
L 291.675245 193.159604 
L 291.783998 193.159604 
L 291.783998 185.973861 
L 293.695902 185.973861 
L 293.695902 178.788119 
L 294.308001 178.788119 
L 294.308001 171.602376 
L 295.637252 171.602376 
L 295.637252 164.416634 
L 297.025256 164.416634 
L 297.025256 157.230891 
L 298.978172 157.230891 
L 298.978172 150.045149 
L 299.018017 150.045149 
L 299.018017 142.859406 
L 299.643397 142.859406 
L 299.643397 135.673663 
L 300.563177 135.673663 
L 300.563177 128.487921 
L 300.746116 128.487921 
L 300.746116 121.302178 
L 300.958887 121.302178 
L 300.958887 114.116436 
L 301.410367 114.116436 
L 301.410367 106.930693 
L 303.050927 106.930693 
L 303.050927 99.74495 
L 303.56469 99.74495 
L 303.56469 92.559208 
L 303.726366 92.559208 
L 303.726366 85.373465 
L 304.608375 85.373465 
L 304.608375 78.187723 
L 304.667729 78.187723 
L 304.667729 71.00198 
L 307.994089 71.00198 
L 307.994089 63.816238 
L 308.724359 63.816238 
L 308.724359 56.630495 
L 309.752801 56.630495 
L 309.752801 49.444752 
L 311.640586 49.444752 
L 311.640586 42.25901 
L 311.909731 42.25901 
L 311.909731 35.073267 
L 315.429365 35.073267 
L 315.429365 27.887525 
L 318.789545 27.887525 
L 318.789545 20.701782 
L 322.696743 20.701782 
L 322.696743 13.51604 
L 330.400352 13.51604 
L 330.400352 6.330297 
L 330.400352 6.330297 
L 330.400352 6.330297 
L 460.8 6.330297 
" clip-path="url(#pad6e8462c6)" style="fill: none; stroke: #bf00bf; stroke-width: 1.5; stroke-linecap: square"/>
   </g>
   <g id="line2d_27">
    <path d="M 266.373948 293.76 
L 266.373948 286.574257 
L 275.065003 286.574257 
L 275.065003 279.388515 
L 275.174392 279.388515 
L 275.174392 272.202772 
L 278.792539 272.202772 
L 278.792539 265.01703 
L 280.726364 265.01703 
L 280.726364 257.831287 
L 280.738467 257.831287 
L 280.738467 250.645545 
L 281.49356 250.645545 
L 281.49356 243.459802 
L 282.338204 243.459802 
L 282.338204 236.274059 
L 282.686651 236.274059 
L 282.686651 229.088317 
L 287.704604 229.088317 
L 287.704604 221.902574 
L 289.085026 221.902574 
L 289.085026 214.716832 
L 289.70884 214.716832 
L 289.70884 207.531089 
L 290.934004 207.531089 
L 290.934004 200.345347 
L 291.67523 200.345347 
L 291.67523 193.159604 
L 291.783997 193.159604 
L 291.783997 185.973861 
L 293.695902 185.973861 
L 293.695902 178.788119 
L 294.308001 178.788119 
L 294.308001 171.602376 
L 295.637249 171.602376 
L 295.637249 164.416634 
L 297.025256 164.416634 
L 297.025256 157.230891 
L 298.978172 157.230891 
L 298.978172 150.045149 
L 299.018017 150.045149 
L 299.018017 142.859406 
L 299.643397 142.859406 
L 299.643397 135.673663 
L 300.563176 135.673663 
L 300.563176 128.487921 
L 300.746109 128.487921 
L 300.746109 121.302178 
L 300.958869 121.302178 
L 300.958869 114.116436 
L 301.410352 114.116436 
L 301.410352 106.930693 
L 303.050927 106.930693 
L 303.050927 99.74495 
L 303.564686 99.74495 
L 303.564686 92.559208 
L 303.726357 92.559208 
L 303.726357 85.373465 
L 304.608371 85.373465 
L 304.608371 78.187723 
L 304.667729 78.187723 
L 304.667729 71.00198 
L 307.994084 71.00198 
L 307.994084 63.816238 
L 308.72433 63.816238 
L 308.72433 56.630495 
L 309.752801 56.630495 
L 309.752801 49.444752 
L 311.640585 49.444752 
L 311.640585 42.25901 
L 311.90973 42.25901 
L 311.90973 35.073267 
L 315.429365 35.073267 
L 315.429365 27.887525 
L 318.789544 27.887525 
L 318.789544 20.701782 
L 322.696743 20.701782 
L 322.696743 13.51604 
L 330.400352 13.51604 
L 330.400352 6.330297 
L 330.400352 6.330297 
L 330.400352 6.330297 
L 460.8 6.330297 
" clip-path="url(#pad6e8462c6)" style="fill: none; stroke: #000000; stroke-width: 1.5; stroke-linecap: square"/>
   </g>
   <g id="patch_3">
    <path d="M 0 293.76 
L 0 3.456 
" style="fill: none; stroke: #000000; stroke-width: 0.8; stroke-linejoin: miter; stroke-linecap: square"/>
   </g>
   <g id="patch_4">
    <path d="M 460.8 293.76 
L 460.8 3.456 
" style="fill: none; stroke: #000000; stroke-width: 0.8; stroke-linejoin: miter; stroke-linecap: square"/>
   </g>
   <g id="patch_5">
    <path d="M 0 293.76 
L 460.8 293.76 
" style="fill: none; stroke: #000000; stroke-width: 0.8; stroke-linejoin: miter; stroke-linecap: square"/>
   </g>
   <g id="patch_6">
    <path d="M 0 3.456 
L 460.8 3.456 
" style="fill: none; stroke: #000000; stroke-width: 0.8; stroke-linejoin: miter; stroke-linecap: square"/>
   </g>
   <g id="text_6">
    <!-- {f9, f10, f18, f19}, 5-D -->
    <g transform="translate(222.705875 287.95392) scale(0.2 -0.2)">
     <defs>
      <path id="DejaVuSans-7b" d="M 3272 -594 
L 3272 -1044 
L 3078 -1044 
Q 2300 -1044 2036 -812 
Q 1772 -581 1772 109 
L 1772 856 
Q 1772 1328 1603 1509 
Q 1434 1691 991 1691 
L 800 1691 
L 800 2138 
L 991 2138 
Q 1438 2138 1605 2317 
Q 1772 2497 1772 2963 
L 1772 3713 
Q 1772 4403 2036 4633 
Q 2300 4863 3078 4863 
L 3272 4863 
L 3272 4416 
L 3059 4416 
Q 2619 4416 2484 4278 
Q 2350 4141 2350 3700 
L 2350 2925 
Q 2350 2434 2208 2212 
Q 2066 1991 1722 1913 
Q 2069 1828 2209 1606 
Q 2350 1384 2350 897 
L 2350 122 
Q 2350 -319 2484 -456 
Q 2619 -594 3059 -594 
L 3272 -594 
z
" transform="scale(0.015625)"/>
      <path id="DejaVuSans-39" d="M 703 97 
L 703 672 
Q 941 559 1184 500 
Q 1428 441 1663 441 
Q 2288 441 2617 861 
Q 2947 1281 2994 2138 
Q 2813 1869 2534 1725 
Q 2256 1581 1919 1581 
Q 1219 1581 811 2004 
Q 403 2428 403 3163 
Q 403 3881 828 4315 
Q 1253 4750 1959 4750 
Q 2769 4750 3195 4129 
Q 3622 3509 3622 2328 
Q 3622 1225 3098 567 
Q 2575 -91 1691 -91 
Q 1453 -91 1209 -44 
Q 966 3 703 97 
z
M 1959 2075 
Q 2384 2075 2632 2365 
Q 2881 2656 2881 3163 
Q 2881 3666 2632 3958 
Q 2384 4250 1959 4250 
Q 1534 4250 1286 3958 
Q 1038 3666 1038 3163 
Q 1038 2656 1286 2365 
Q 1534 2075 1959 2075 
z
" transform="scale(0.015625)"/>
      <path id="DejaVuSans-2c" d="M 750 794 
L 1409 794 
L 1409 256 
L 897 -744 
L 494 -744 
L 750 256 
L 750 794 
z
" transform="scale(0.015625)"/>
      <path id="DejaVuSans-38" d="M 2034 2216 
Q 1584 2216 1326 1975 
Q 1069 1734 1069 1313 
Q 1069 891 1326 650 
Q 1584 409 2034 409 
Q 2484 409 2743 651 
Q 3003 894 3003 1313 
Q 3003 1734 2745 1975 
Q 2488 2216 2034 2216 
z
M 1403 2484 
Q 997 2584 770 2862 
Q 544 3141 544 3541 
Q 544 4100 942 4425 
Q 1341 4750 2034 4750 
Q 2731 4750 3128 4425 
Q 3525 4100 3525 3541 
Q 3525 3141 3298 2862 
Q 3072 2584 2669 2484 
Q 3125 2378 3379 2068 
Q 3634 1759 3634 1313 
Q 3634 634 3220 271 
Q 2806 -91 2034 -91 
Q 1263 -91 848 271 
Q 434 634 434 1313 
Q 434 1759 690 2068 
Q 947 2378 1403 2484 
z
M 1172 3481 
Q 1172 3119 1398 2916 
Q 1625 2713 2034 2713 
Q 2441 2713 2670 2916 
Q 2900 3119 2900 3481 
Q 2900 3844 2670 4047 
Q 2441 4250 2034 4250 
Q 1625 4250 1398 4047 
Q 1172 3844 1172 3481 
z
" transform="scale(0.015625)"/>
      <path id="DejaVuSans-7d" d="M 800 -594 
L 1019 -594 
Q 1456 -594 1589 -459 
Q 1722 -325 1722 122 
L 1722 897 
Q 1722 1384 1862 1606 
Q 2003 1828 2350 1913 
Q 2003 1991 1862 2212 
Q 1722 2434 1722 2925 
L 1722 3700 
Q 1722 4144 1589 4280 
Q 1456 4416 1019 4416 
L 800 4416 
L 800 4863 
L 997 4863 
Q 1775 4863 2036 4633 
Q 2297 4403 2297 3713 
L 2297 2963 
Q 2297 2497 2465 2317 
Q 2634 2138 3078 2138 
L 3272 2138 
L 3272 1691 
L 3078 1691 
Q 2634 1691 2465 1509 
Q 2297 1328 2297 856 
L 2297 109 
Q 2297 -581 2036 -812 
Q 1775 -1044 997 -1044 
L 800 -1044 
L 800 -594 
z
" transform="scale(0.015625)"/>
     </defs>
     <use xlink:href="#DejaVuSans-7b"/>
     <use xlink:href="#DejaVuSans-66" x="63.623047"/>
     <use xlink:href="#DejaVuSans-39" x="98.828125"/>
     <use xlink:href="#DejaVuSans-2c" x="162.451172"/>
     <use xlink:href="#DejaVuSans-20" x="194.238281"/>
     <use xlink:href="#DejaVuSans-66" x="226.025391"/>
     <use xlink:href="#DejaVuSans-31" x="261.230469"/>
     <use xlink:href="#DejaVuSans-30" x="324.853516"/>
     <use xlink:href="#DejaVuSans-2c" x="388.476562"/>
     <use xlink:href="#DejaVuSans-20" x="420.263672"/>
     <use xlink:href="#DejaVuSans-66" x="452.050781"/>
     <use xlink:href="#DejaVuSans-31" x="487.255859"/>
     <use xlink:href="#DejaVuSans-38" x="550.878906"/>
     <use xlink:href="#DejaVuSans-2c" x="614.501953"/>
     <use xlink:href="#DejaVuSans-20" x="646.289062"/>
     <use xlink:href="#DejaVuSans-66" x="678.076172"/>
     <use xlink:href="#DejaVuSans-31" x="713.28125"/>
     <use xlink:href="#DejaVuSans-39" x="776.904297"/>
     <use xlink:href="#DejaVuSans-7d" x="840.527344"/>
     <use xlink:href="#DejaVuSans-2c" x="904.150391"/>
     <use xlink:href="#DejaVuSans-20" x="935.9375"/>
     <use xlink:href="#DejaVuSans-35" x="967.724609"/>
     <use xlink:href="#DejaVuSans-2d" x="1031.347656"/>
     <use xlink:href="#DejaVuSans-44" x="1067.431641"/>
    </g>
   </g>
   <g id="text_7">
    <!-- v2.6.3, hv-hash=ff0e71e8cd978373 -->
    <g style="fill: #808080" transform="translate(140.134375 288.777272) scale(0.1 -0.1)">
     <defs>
      <path id="DejaVuSans-76" d="M 191 3500 
L 800 3500 
L 1894 563 
L 2988 3500 
L 3597 3500 
L 2284 0 
L 1503 0 
L 191 3500 
z
" transform="scale(0.015625)"/>
      <path id="DejaVuSans-2e" d="M 684 794 
L 1344 794 
L 1344 0 
L 684 0 
L 684 794 
z
" transform="scale(0.015625)"/>
      <path id="DejaVuSans-36" d="M 2113 2584 
Q 1688 2584 1439 2293 
Q 1191 2003 1191 1497 
Q 1191 994 1439 701 
Q 1688 409 2113 409 
Q 2538 409 2786 701 
Q 3034 994 3034 1497 
Q 3034 2003 2786 2293 
Q 2538 2584 2113 2584 
z
M 3366 4563 
L 3366 3988 
Q 3128 4100 2886 4159 
Q 2644 4219 2406 4219 
Q 1781 4219 1451 3797 
Q 1122 3375 1075 2522 
Q 1259 2794 1537 2939 
Q 1816 3084 2150 3084 
Q 2853 3084 3261 2657 
Q 3669 2231 3669 1497 
Q 3669 778 3244 343 
Q 2819 -91 2113 -91 
Q 1303 -91 875 529 
Q 447 1150 447 2328 
Q 447 3434 972 4092 
Q 1497 4750 2381 4750 
Q 2619 4750 2861 4703 
Q 3103 4656 3366 4563 
z
" transform="scale(0.015625)"/>
      <path id="DejaVuSans-33" d="M 2597 2516 
Q 3050 2419 3304 2112 
Q 3559 1806 3559 1356 
Q 3559 666 3084 287 
Q 2609 -91 1734 -91 
Q 1441 -91 1130 -33 
Q 819 25 488 141 
L 488 750 
Q 750 597 1062 519 
Q 1375 441 1716 441 
Q 2309 441 2620 675 
Q 2931 909 2931 1356 
Q 2931 1769 2642 2001 
Q 2353 2234 1838 2234 
L 1294 2234 
L 1294 2753 
L 1863 2753 
Q 2328 2753 2575 2939 
Q 2822 3125 2822 3475 
Q 2822 3834 2567 4026 
Q 2313 4219 1838 4219 
Q 1578 4219 1281 4162 
Q 984 4106 628 3988 
L 628 4550 
Q 988 4650 1302 4700 
Q 1616 4750 1894 4750 
Q 2613 4750 3031 4423 
Q 3450 4097 3450 3541 
Q 3450 3153 3228 2886 
Q 3006 2619 2597 2516 
z
" transform="scale(0.015625)"/>
      <path id="DejaVuSans-68" d="M 3513 2113 
L 3513 0 
L 2938 0 
L 2938 2094 
Q 2938 2591 2744 2837 
Q 2550 3084 2163 3084 
Q 1697 3084 1428 2787 
Q 1159 2491 1159 1978 
L 1159 0 
L 581 0 
L 581 4863 
L 1159 4863 
L 1159 2956 
Q 1366 3272 1645 3428 
Q 1925 3584 2291 3584 
Q 2894 3584 3203 3211 
Q 3513 2838 3513 2113 
z
" transform="scale(0.015625)"/>
      <path id="DejaVuSans-61" d="M 2194 1759 
Q 1497 1759 1228 1600 
Q 959 1441 959 1056 
Q 959 750 1161 570 
Q 1363 391 1709 391 
Q 2188 391 2477 730 
Q 2766 1069 2766 1631 
L 2766 1759 
L 2194 1759 
z
M 3341 1997 
L 3341 0 
L 2766 0 
L 2766 531 
Q 2569 213 2275 61 
Q 1981 -91 1556 -91 
Q 1019 -91 701 211 
Q 384 513 384 1019 
Q 384 1609 779 1909 
Q 1175 2209 1959 2209 
L 2766 2209 
L 2766 2266 
Q 2766 2663 2505 2880 
Q 2244 3097 1772 3097 
Q 1472 3097 1187 3025 
Q 903 2953 641 2809 
L 641 3341 
Q 956 3463 1253 3523 
Q 1550 3584 1831 3584 
Q 2591 3584 2966 3190 
Q 3341 2797 3341 1997 
z
" transform="scale(0.015625)"/>
      <path id="DejaVuSans-73" d="M 2834 3397 
L 2834 2853 
Q 2591 2978 2328 3040 
Q 2066 3103 1784 3103 
Q 1356 3103 1142 2972 
Q 928 2841 928 2578 
Q 928 2378 1081 2264 
Q 1234 2150 1697 2047 
L 1894 2003 
Q 2506 1872 2764 1633 
Q 3022 1394 3022 966 
Q 3022 478 2636 193 
Q 2250 -91 1575 -91 
Q 1294 -91 989 -36 
Q 684 19 347 128 
L 347 722 
Q 666 556 975 473 
Q 1284 391 1588 391 
Q 1994 391 2212 530 
Q 2431 669 2431 922 
Q 2431 1156 2273 1281 
Q 2116 1406 1581 1522 
L 1381 1569 
Q 847 1681 609 1914 
Q 372 2147 372 2553 
Q 372 3047 722 3315 
Q 1072 3584 1716 3584 
Q 2034 3584 2315 3537 
Q 2597 3491 2834 3397 
z
" transform="scale(0.015625)"/>
      <path id="DejaVuSans-3d" d="M 678 2906 
L 4684 2906 
L 4684 2381 
L 678 2381 
L 678 2906 
z
M 678 1631 
L 4684 1631 
L 4684 1100 
L 678 1100 
L 678 1631 
z
" transform="scale(0.015625)"/>
      <path id="DejaVuSans-65" d="M 3597 1894 
L 3597 1613 
L 953 1613 
Q 991 1019 1311 708 
Q 1631 397 2203 397 
Q 2534 397 2845 478 
Q 3156 559 3463 722 
L 3463 178 
Q 3153 47 2828 -22 
Q 2503 -91 2169 -91 
Q 1331 -91 842 396 
Q 353 884 353 1716 
Q 353 2575 817 3079 
Q 1281 3584 2069 3584 
Q 2775 3584 3186 3129 
Q 3597 2675 3597 1894 
z
M 3022 2063 
Q 3016 2534 2758 2815 
Q 2500 3097 2075 3097 
Q 1594 3097 1305 2825 
Q 1016 2553 972 2059 
L 3022 2063 
z
" transform="scale(0.015625)"/>
      <path id="DejaVuSans-37" d="M 525 4666 
L 3525 4666 
L 3525 4397 
L 1831 0 
L 1172 0 
L 2766 4134 
L 525 4134 
L 525 4666 
z
" transform="scale(0.015625)"/>
      <path id="DejaVuSans-63" d="M 3122 3366 
L 3122 2828 
Q 2878 2963 2633 3030 
Q 2388 3097 2138 3097 
Q 1578 3097 1268 2742 
Q 959 2388 959 1747 
Q 959 1106 1268 751 
Q 1578 397 2138 397 
Q 2388 397 2633 464 
Q 2878 531 3122 666 
L 3122 134 
Q 2881 22 2623 -34 
Q 2366 -91 2075 -91 
Q 1284 -91 818 406 
Q 353 903 353 1747 
Q 353 2603 823 3093 
Q 1294 3584 2113 3584 
Q 2378 3584 2631 3529 
Q 2884 3475 3122 3366 
z
" transform="scale(0.015625)"/>
      <path id="DejaVuSans-64" d="M 2906 2969 
L 2906 4863 
L 3481 4863 
L 3481 0 
L 2906 0 
L 2906 525 
Q 2725 213 2448 61 
Q 2172 -91 1784 -91 
Q 1150 -91 751 415 
Q 353 922 353 1747 
Q 353 2572 751 3078 
Q 1150 3584 1784 3584 
Q 2172 3584 2448 3432 
Q 2725 3281 2906 2969 
z
M 947 1747 
Q 947 1113 1208 752 
Q 1469 391 1925 391 
Q 2381 391 2643 752 
Q 2906 1113 2906 1747 
Q 2906 2381 2643 2742 
Q 2381 3103 1925 3103 
Q 1469 3103 1208 2742 
Q 947 2381 947 1747 
z
" transform="scale(0.015625)"/>
     </defs>
     <use xlink:href="#DejaVuSans-76"/>
     <use xlink:href="#DejaVuSans-32" x="59.179688"/>
     <use xlink:href="#DejaVuSans-2e" x="122.802734"/>
     <use xlink:href="#DejaVuSans-36" x="154.589844"/>
     <use xlink:href="#DejaVuSans-2e" x="218.212891"/>
     <use xlink:href="#DejaVuSans-33" x="250"/>
     <use xlink:href="#DejaVuSans-2c" x="313.623047"/>
     <use xlink:href="#DejaVuSans-20" x="345.410156"/>
     <use xlink:href="#DejaVuSans-68" x="377.197266"/>
     <use xlink:href="#DejaVuSans-76" x="440.576172"/>
     <use xlink:href="#DejaVuSans-2d" x="497.130859"/>
     <use xlink:href="#DejaVuSans-68" x="533.214844"/>
     <use xlink:href="#DejaVuSans-61" x="596.59375"/>
     <use xlink:href="#DejaVuSans-73" x="657.873047"/>
     <use xlink:href="#DejaVuSans-68" x="709.972656"/>
     <use xlink:href="#DejaVuSans-3d" x="773.351562"/>
     <use xlink:href="#DejaVuSans-66" x="857.140625"/>
     <use xlink:href="#DejaVuSans-66" x="892.345703"/>
     <use xlink:href="#DejaVuSans-30" x="927.550781"/>
     <use xlink:href="#DejaVuSans-65" x="991.173828"/>
     <use xlink:href="#DejaVuSans-37" x="1052.697266"/>
     <use xlink:href="#DejaVuSans-31" x="1116.320312"/>
     <use xlink:href="#DejaVuSans-65" x="1179.943359"/>
     <use xlink:href="#DejaVuSans-38" x="1241.466797"/>
     <use xlink:href="#DejaVuSans-63" x="1305.089844"/>
     <use xlink:href="#DejaVuSans-64" x="1360.070312"/>
     <use xlink:href="#DejaVuSans-39" x="1423.546875"/>
     <use xlink:href="#DejaVuSans-37" x="1487.169922"/>
     <use xlink:href="#DejaVuSans-38" x="1550.792969"/>
     <use xlink:href="#DejaVuSans-33" x="1614.416016"/>
     <use xlink:href="#DejaVuSans-37" x="1678.039062"/>
     <use xlink:href="#DejaVuSans-33" x="1741.662109"/>
    </g>
   </g>
  </g>
 </g>
 <defs>
  <clipPath id="pad6e8462c6">
   <rect x="0" y="3.456" width="460.8" height="290.304"/>
  </clipPath>
 </defs>
</svg>
