<?xml version="1.0" encoding="utf-8" standalone="no"?>
<!DOCTYPE svg PUBLIC "-//W3C//DTD SVG 1.1//EN"
  "http://www.w3.org/Graphics/SVG/1.1/DTD/svg11.dtd">
<svg xmlns:xlink="http://www.w3.org/1999/xlink" width="460.8pt" height="345.6pt" viewBox="0 0 460.8 345.6" xmlns="http://www.w3.org/2000/svg" version="1.1">
 <metadata>
  <rdf:RDF xmlns:dc="http://purl.org/dc/elements/1.1/" xmlns:cc="http://creativecommons.org/ns#" xmlns:rdf="http://www.w3.org/1999/02/22-rdf-syntax-ns#">
   <cc:Work>
    <dc:type rdf:resource="http://purl.org/dc/dcmitype/StillImage"/>
    <dc:date>2023-06-14T00:36:05.097822</dc:date>
    <dc:format>image/svg+xml</dc:format>
    <dc:creator>
     <cc:Agent>
      <dc:title>Matplotlib v3.7.1, https://matplotlib.org/</dc:title>
     </cc:Agent>
    </dc:creator>
   </cc:Work>
  </rdf:RDF>
 </metadata>
 <defs>
  <style type="text/css">*{stroke-linejoin: round; stroke-linecap: butt}</style>
 </defs>
 <g id="figure_1">
  <g id="patch_1">
   <path d="M 0 345.6 
L 460.8 345.6 
L 460.8 0 
L 0 0 
z
" style="fill: #ffffff"/>
  </g>
  <g id="axes_1">
   <g id="patch_2">
    <path d="M 0 293.76 
L 460.8 293.76 
L 460.8 3.456 
L 0 3.456 
z
" style="fill: #ffffff"/>
   </g>
   <g id="matplotlib.axis_1">
    <g id="xtick_1">
     <g id="line2d_1">
      <path d="M 105.028529 293.76 
L 105.028529 3.456 
" clip-path="url(#p47cd9b1669)" style="fill: none; stroke: #b0b0b0; stroke-width: 0.8; stroke-linecap: square"/>
     </g>
     <g id="line2d_2">
      <defs>
       <path id="m7e3224ffd8" d="M 0 0 
L 0 3.5 
" style="stroke: #000000; stroke-width: 0.8"/>
      </defs>
      <g>
       <use xlink:href="#m7e3224ffd8" x="105.028529" y="293.76" style="stroke: #000000; stroke-width: 0.8"/>
      </g>
     </g>
     <g id="text_1">
      <!-- -6 -->
      <g transform="translate(95.058217 315.956875) scale(0.2 -0.2)">
       <defs>
        <path id="DejaVuSans-2d" d="M 313 2009 
L 1997 2009 
L 1997 1497 
L 313 1497 
L 313 2009 
z
" transform="scale(0.015625)"/>
        <path id="DejaVuSans-36" d="M 2113 2584 
Q 1688 2584 1439 2293 
Q 1191 2003 1191 1497 
Q 1191 994 1439 701 
Q 1688 409 2113 409 
Q 2538 409 2786 701 
Q 3034 994 3034 1497 
Q 3034 2003 2786 2293 
Q 2538 2584 2113 2584 
z
M 3366 4563 
L 3366 3988 
Q 3128 4100 2886 4159 
Q 2644 4219 2406 4219 
Q 1781 4219 1451 3797 
Q 1122 3375 1075 2522 
Q 1259 2794 1537 2939 
Q 1816 3084 2150 3084 
Q 2853 3084 3261 2657 
Q 3669 2231 3669 1497 
Q 3669 778 3244 343 
Q 2819 -91 2113 -91 
Q 1303 -91 875 529 
Q 447 1150 447 2328 
Q 447 3434 972 4092 
Q 1497 4750 2381 4750 
Q 2619 4750 2861 4703 
Q 3103 4656 3366 4563 
z
" transform="scale(0.015625)"/>
       </defs>
       <use xlink:href="#DejaVuSans-2d"/>
       <use xlink:href="#DejaVuSans-36" x="36.083984"/>
      </g>
     </g>
    </g>
    <g id="xtick_2">
     <g id="line2d_3">
      <path d="M 210.284484 293.76 
L 210.284484 3.456 
" clip-path="url(#p47cd9b1669)" style="fill: none; stroke: #b0b0b0; stroke-width: 0.8; stroke-linecap: square"/>
     </g>
     <g id="line2d_4">
      <g>
       <use xlink:href="#m7e3224ffd8" x="210.284484" y="293.76" style="stroke: #000000; stroke-width: 0.8"/>
      </g>
     </g>
     <g id="text_2">
      <!-- -4 -->
      <g transform="translate(200.314172 315.956875) scale(0.2 -0.2)">
       <defs>
        <path id="DejaVuSans-34" d="M 2419 4116 
L 825 1625 
L 2419 1625 
L 2419 4116 
z
M 2253 4666 
L 3047 4666 
L 3047 1625 
L 3713 1625 
L 3713 1100 
L 3047 1100 
L 3047 0 
L 2419 0 
L 2419 1100 
L 313 1100 
L 313 1709 
L 2253 4666 
z
" transform="scale(0.015625)"/>
       </defs>
       <use xlink:href="#DejaVuSans-2d"/>
       <use xlink:href="#DejaVuSans-34" x="36.083984"/>
      </g>
     </g>
    </g>
    <g id="xtick_3">
     <g id="line2d_5">
      <path d="M 315.540439 293.76 
L 315.540439 3.456 
" clip-path="url(#p47cd9b1669)" style="fill: none; stroke: #b0b0b0; stroke-width: 0.8; stroke-linecap: square"/>
     </g>
     <g id="line2d_6">
      <g>
       <use xlink:href="#m7e3224ffd8" x="315.540439" y="293.76" style="stroke: #000000; stroke-width: 0.8"/>
      </g>
     </g>
     <g id="text_3">
      <!-- -2 -->
      <g transform="translate(305.570126 315.956875) scale(0.2 -0.2)">
       <defs>
        <path id="DejaVuSans-32" d="M 1228 531 
L 3431 531 
L 3431 0 
L 469 0 
L 469 531 
Q 828 903 1448 1529 
Q 2069 2156 2228 2338 
Q 2531 2678 2651 2914 
Q 2772 3150 2772 3378 
Q 2772 3750 2511 3984 
Q 2250 4219 1831 4219 
Q 1534 4219 1204 4116 
Q 875 4013 500 3803 
L 500 4441 
Q 881 4594 1212 4672 
Q 1544 4750 1819 4750 
Q 2544 4750 2975 4387 
Q 3406 4025 3406 3419 
Q 3406 3131 3298 2873 
Q 3191 2616 2906 2266 
Q 2828 2175 2409 1742 
Q 1991 1309 1228 531 
z
" transform="scale(0.015625)"/>
       </defs>
       <use xlink:href="#DejaVuSans-2d"/>
       <use xlink:href="#DejaVuSans-32" x="36.083984"/>
      </g>
     </g>
    </g>
    <g id="xtick_4">
     <g id="line2d_7">
      <path d="M 420.796393 293.76 
L 420.796393 3.456 
" clip-path="url(#p47cd9b1669)" style="fill: none; stroke: #b0b0b0; stroke-width: 0.8; stroke-linecap: square"/>
     </g>
     <g id="line2d_8">
      <g>
       <use xlink:href="#m7e3224ffd8" x="420.796393" y="293.76" style="stroke: #000000; stroke-width: 0.8"/>
      </g>
     </g>
     <g id="text_4">
      <!-- 0 -->
      <g transform="translate(414.433893 315.956875) scale(0.2 -0.2)">
       <defs>
        <path id="DejaVuSans-30" d="M 2034 4250 
Q 1547 4250 1301 3770 
Q 1056 3291 1056 2328 
Q 1056 1369 1301 889 
Q 1547 409 2034 409 
Q 2525 409 2770 889 
Q 3016 1369 3016 2328 
Q 3016 3291 2770 3770 
Q 2525 4250 2034 4250 
z
M 2034 4750 
Q 2819 4750 3233 4129 
Q 3647 3509 3647 2328 
Q 3647 1150 3233 529 
Q 2819 -91 2034 -91 
Q 1250 -91 836 529 
Q 422 1150 422 2328 
Q 422 3509 836 4129 
Q 1250 4750 2034 4750 
z
" transform="scale(0.015625)"/>
       </defs>
       <use xlink:href="#DejaVuSans-30"/>
      </g>
     </g>
    </g>
    <g id="text_5">
     <!-- log10 of Df -->
     <g transform="translate(175.214063 339.313125) scale(0.2 -0.2)">
      <defs>
       <path id="DejaVuSans-6c" d="M 603 4863 
L 1178 4863 
L 1178 0 
L 603 0 
L 603 4863 
z
" transform="scale(0.015625)"/>
       <path id="DejaVuSans-6f" d="M 1959 3097 
Q 1497 3097 1228 2736 
Q 959 2375 959 1747 
Q 959 1119 1226 758 
Q 1494 397 1959 397 
Q 2419 397 2687 759 
Q 2956 1122 2956 1747 
Q 2956 2369 2687 2733 
Q 2419 3097 1959 3097 
z
M 1959 3584 
Q 2709 3584 3137 3096 
Q 3566 2609 3566 1747 
Q 3566 888 3137 398 
Q 2709 -91 1959 -91 
Q 1206 -91 779 398 
Q 353 888 353 1747 
Q 353 2609 779 3096 
Q 1206 3584 1959 3584 
z
" transform="scale(0.015625)"/>
       <path id="DejaVuSans-67" d="M 2906 1791 
Q 2906 2416 2648 2759 
Q 2391 3103 1925 3103 
Q 1463 3103 1205 2759 
Q 947 2416 947 1791 
Q 947 1169 1205 825 
Q 1463 481 1925 481 
Q 2391 481 2648 825 
Q 2906 1169 2906 1791 
z
M 3481 434 
Q 3481 -459 3084 -895 
Q 2688 -1331 1869 -1331 
Q 1566 -1331 1297 -1286 
Q 1028 -1241 775 -1147 
L 775 -588 
Q 1028 -725 1275 -790 
Q 1522 -856 1778 -856 
Q 2344 -856 2625 -561 
Q 2906 -266 2906 331 
L 2906 616 
Q 2728 306 2450 153 
Q 2172 0 1784 0 
Q 1141 0 747 490 
Q 353 981 353 1791 
Q 353 2603 747 3093 
Q 1141 3584 1784 3584 
Q 2172 3584 2450 3431 
Q 2728 3278 2906 2969 
L 2906 3500 
L 3481 3500 
L 3481 434 
z
" transform="scale(0.015625)"/>
       <path id="DejaVuSans-31" d="M 794 531 
L 1825 531 
L 1825 4091 
L 703 3866 
L 703 4441 
L 1819 4666 
L 2450 4666 
L 2450 531 
L 3481 531 
L 3481 0 
L 794 0 
L 794 531 
z
" transform="scale(0.015625)"/>
       <path id="DejaVuSans-20" transform="scale(0.015625)"/>
       <path id="DejaVuSans-66" d="M 2375 4863 
L 2375 4384 
L 1825 4384 
Q 1516 4384 1395 4259 
Q 1275 4134 1275 3809 
L 1275 3500 
L 2222 3500 
L 2222 3053 
L 1275 3053 
L 1275 0 
L 697 0 
L 697 3053 
L 147 3053 
L 147 3500 
L 697 3500 
L 697 3744 
Q 697 4328 969 4595 
Q 1241 4863 1831 4863 
L 2375 4863 
z
" transform="scale(0.015625)"/>
       <path id="DejaVuSans-44" d="M 1259 4147 
L 1259 519 
L 2022 519 
Q 2988 519 3436 956 
Q 3884 1394 3884 2338 
Q 3884 3275 3436 3711 
Q 2988 4147 2022 4147 
L 1259 4147 
z
M 628 4666 
L 1925 4666 
Q 3281 4666 3915 4102 
Q 4550 3538 4550 2338 
Q 4550 1131 3912 565 
Q 3275 0 1925 0 
L 628 0 
L 628 4666 
z
" transform="scale(0.015625)"/>
      </defs>
      <use xlink:href="#DejaVuSans-6c"/>
      <use xlink:href="#DejaVuSans-6f" x="27.783203"/>
      <use xlink:href="#DejaVuSans-67" x="88.964844"/>
      <use xlink:href="#DejaVuSans-31" x="152.441406"/>
      <use xlink:href="#DejaVuSans-30" x="216.064453"/>
      <use xlink:href="#DejaVuSans-20" x="279.6875"/>
      <use xlink:href="#DejaVuSans-6f" x="311.474609"/>
      <use xlink:href="#DejaVuSans-66" x="372.65625"/>
      <use xlink:href="#DejaVuSans-20" x="407.861328"/>
      <use xlink:href="#DejaVuSans-44" x="439.648438"/>
      <use xlink:href="#DejaVuSans-66" x="516.650391"/>
     </g>
    </g>
   </g>
   <g id="matplotlib.axis_2">
    <g id="ytick_1">
     <g id="line2d_9">
      <path d="M 0 293.76 
L 460.8 293.76 
" clip-path="url(#p47cd9b1669)" style="fill: none; stroke: #b0b0b0; stroke-width: 0.8; stroke-linecap: square"/>
     </g>
     <g id="line2d_10">
      <defs>
       <path id="mee99aa0369" d="M 0 0 
L -3.5 0 
" style="stroke: #000000; stroke-width: 0.8"/>
      </defs>
      <g>
       <use xlink:href="#mee99aa0369" x="0" y="293.76" style="stroke: #000000; stroke-width: 0.8"/>
      </g>
     </g>
    </g>
    <g id="ytick_2">
     <g id="line2d_11">
      <path d="M 0 236.274059 
L 460.8 236.274059 
" clip-path="url(#p47cd9b1669)" style="fill: none; stroke: #b0b0b0; stroke-width: 0.8; stroke-linecap: square"/>
     </g>
     <g id="line2d_12">
      <g>
       <use xlink:href="#mee99aa0369" x="0" y="236.274059" style="stroke: #000000; stroke-width: 0.8"/>
      </g>
     </g>
    </g>
    <g id="ytick_3">
     <g id="line2d_13">
      <path d="M 0 178.788119 
L 460.8 178.788119 
" clip-path="url(#p47cd9b1669)" style="fill: none; stroke: #b0b0b0; stroke-width: 0.8; stroke-linecap: square"/>
     </g>
     <g id="line2d_14">
      <g>
       <use xlink:href="#mee99aa0369" x="0" y="178.788119" style="stroke: #000000; stroke-width: 0.8"/>
      </g>
     </g>
    </g>
    <g id="ytick_4">
     <g id="line2d_15">
      <path d="M 0 121.302178 
L 460.8 121.302178 
" clip-path="url(#p47cd9b1669)" style="fill: none; stroke: #b0b0b0; stroke-width: 0.8; stroke-linecap: square"/>
     </g>
     <g id="line2d_16">
      <g>
       <use xlink:href="#mee99aa0369" x="0" y="121.302178" style="stroke: #000000; stroke-width: 0.8"/>
      </g>
     </g>
    </g>
    <g id="ytick_5">
     <g id="line2d_17">
      <path d="M 0 63.816238 
L 460.8 63.816238 
" clip-path="url(#p47cd9b1669)" style="fill: none; stroke: #b0b0b0; stroke-width: 0.8; stroke-linecap: square"/>
     </g>
     <g id="line2d_18">
      <g>
       <use xlink:href="#mee99aa0369" x="0" y="63.816238" style="stroke: #000000; stroke-width: 0.8"/>
      </g>
     </g>
    </g>
    <g id="ytick_6">
     <g id="line2d_19">
      <path d="M 0 6.330297 
L 460.8 6.330297 
" clip-path="url(#p47cd9b1669)" style="fill: none; stroke: #b0b0b0; stroke-width: 0.8; stroke-linecap: square"/>
     </g>
     <g id="line2d_20">
      <g>
       <use xlink:href="#mee99aa0369" x="0" y="6.330297" style="stroke: #000000; stroke-width: 0.8"/>
      </g>
     </g>
    </g>
   </g>
   <g id="line2d_21">
    <path d="M 373.214363 293.76 
L 373.214363 293.237401 
L 375.268554 293.237401 
L 375.268554 292.714801 
L 379.510906 292.714801 
L 379.510906 292.192202 
L 380.517577 292.192202 
L 380.517577 291.669602 
L 386.037939 291.669602 
L 386.037939 291.147003 
L 386.785087 291.147003 
L 386.785087 290.624403 
L 386.971079 290.624403 
L 386.971079 290.101804 
L 387.971719 290.101804 
L 387.971719 289.579204 
L 389.883856 289.579204 
L 389.929128 288.534005 
L 390.562823 288.534005 
L 390.562823 288.011406 
L 391.121329 288.011406 
L 391.139725 286.966207 
L 391.604546 286.966207 
L 391.604546 286.443608 
L 391.916356 286.443608 
L 391.916356 285.921008 
L 392.415023 285.921008 
L 392.415023 285.398409 
L 392.959625 285.398409 
L 393.040732 283.83061 
L 393.452511 283.83061 
L 393.452511 283.308011 
L 393.829334 283.308011 
L 393.829334 282.785411 
L 394.351006 282.785411 
L 394.351006 282.262812 
L 394.718713 282.262812 
L 394.718713 281.740212 
L 395.257005 281.740212 
L 395.257005 281.217613 
L 397.122098 281.217613 
L 397.122098 280.695014 
L 397.872822 280.695014 
L 397.90655 279.649815 
L 398.608686 279.649815 
L 398.608686 279.127215 
L 398.936847 279.127215 
L 398.936847 278.604616 
L 399.268574 278.604616 
L 399.328157 277.559417 
L 399.436033 277.559417 
L 399.436033 277.036817 
L 399.832786 277.036817 
L 399.832786 276.514218 
L 399.974356 276.514218 
L 399.974356 275.991618 
L 400.11929 275.991618 
L 400.11929 275.469019 
L 400.382353 275.469019 
L 400.382353 274.946419 
L 400.514849 274.946419 
L 400.614476 273.901221 
L 400.711908 273.901221 
L 400.75103 272.856022 
L 400.852548 272.856022 
L 400.909282 271.810823 
L 401.02789 271.810823 
L 401.02789 271.288223 
L 401.442394 271.288223 
L 401.531662 269.720425 
L 401.658692 269.720425 
L 401.673533 268.675226 
L 401.986524 268.675226 
L 401.986524 268.152626 
L 402.346316 268.152626 
L 402.388407 267.107428 
L 402.482912 267.107428 
L 402.482912 266.584828 
L 402.655287 266.584828 
L 402.656749 265.539629 
L 402.847962 265.539629 
L 402.937673 264.49443 
L 402.97166 264.49443 
L 403.074241 262.404032 
L 403.107031 262.404032 
L 403.135068 261.358833 
L 403.264266 261.358833 
L 403.349131 259.791035 
L 403.409848 259.791035 
L 403.477578 258.223237 
L 403.791985 258.223237 
L 403.888229 256.132839 
L 403.987775 256.132839 
L 404.094011 253.519842 
L 404.183843 253.519842 
L 404.291603 251.429444 
L 404.369129 251.429444 
L 404.463664 250.384245 
L 404.592438 250.384245 
L 404.677785 248.293847 
L 404.98039 248.293847 
L 405.027158 247.248648 
L 405.175622 247.248648 
L 405.17591 246.203449 
L 405.362336 246.203449 
L 405.460247 243.067852 
L 405.491921 243.067852 
L 405.548969 242.022653 
L 405.615212 242.022653 
L 405.69371 239.409656 
L 405.753232 239.409656 
L 405.829465 237.319258 
L 405.874048 237.319258 
L 405.891923 236.274059 
L 406.312833 236.274059 
L 406.397503 234.183662 
L 406.432412 234.183662 
L 406.540595 233.138463 
L 406.611897 233.138463 
L 406.714936 232.093264 
L 406.767553 232.093264 
L 406.86492 230.525465 
L 406.891356 230.525465 
L 406.919512 227.389869 
L 407.057121 227.389869 
L 407.114727 225.82207 
L 407.2056 225.82207 
L 407.219929 224.776871 
L 407.326204 224.776871 
L 407.419013 223.731672 
L 407.446671 223.731672 
L 407.493064 222.686473 
L 407.58338 222.686473 
L 407.691059 221.118675 
L 407.77662 221.118675 
L 407.82724 219.028277 
L 407.924705 219.028277 
L 408.009242 217.460479 
L 408.163404 217.460479 
L 408.190815 215.89268 
L 408.339745 215.89268 
L 408.355272 214.847482 
L 408.460182 214.847482 
L 408.533092 211.711885 
L 408.575788 211.711885 
L 408.641021 210.666686 
L 408.70824 210.666686 
L 408.781394 209.621487 
L 408.827841 209.621487 
L 408.919672 208.576288 
L 408.958297 208.576288 
L 409.007638 204.395492 
L 409.101031 204.395492 
L 409.174656 202.305095 
L 409.212567 202.305095 
L 409.288615 200.214697 
L 409.365193 200.214697 
L 409.383547 199.169498 
L 409.47957 199.169498 
L 409.582741 197.601699 
L 409.660186 197.601699 
L 409.730682 195.511302 
L 409.784321 195.511302 
L 409.835332 193.420904 
L 409.899312 193.420904 
L 409.958359 191.853105 
L 410.014729 191.853105 
L 410.092274 189.762707 
L 410.3324 189.762707 
L 410.364608 188.717509 
L 410.502746 188.717509 
L 410.558047 186.104511 
L 410.673022 186.104511 
L 410.728602 182.968914 
L 410.873616 182.968914 
L 410.970907 178.788119 
L 411.049547 178.788119 
L 411.101092 177.74292 
L 411.185223 177.74292 
L 411.234847 176.697721 
L 411.315237 176.697721 
L 411.424362 175.129923 
L 411.429639 175.129923 
L 411.523977 173.562124 
L 411.562722 173.562124 
L 411.664981 170.949127 
L 411.674928 170.949127 
L 411.766648 168.33613 
L 411.794335 168.33613 
L 411.868025 166.245732 
L 411.912559 166.245732 
L 411.996048 164.677933 
L 412.113956 164.677933 
L 412.199435 162.064936 
L 412.288523 162.064936 
L 412.390469 159.974538 
L 412.449627 159.974538 
L 412.50821 157.88414 
L 412.561578 157.88414 
L 412.59823 156.838941 
L 412.704225 156.838941 
L 412.799458 154.748544 
L 412.8893 154.748544 
L 412.970454 152.658146 
L 413.029022 152.658146 
L 413.109194 150.567748 
L 413.147239 150.567748 
L 413.250029 148.99995 
L 413.266577 148.99995 
L 413.374467 145.864353 
L 413.480248 145.864353 
L 413.523206 144.296554 
L 413.617833 144.296554 
L 413.720263 142.206157 
L 413.739707 142.206157 
L 413.840309 138.54796 
L 413.851556 138.54796 
L 413.936573 135.412364 
L 413.999061 135.412364 
L 414.086634 132.799366 
L 414.121504 132.799366 
L 414.171499 131.754167 
L 414.239112 131.754167 
L 414.300706 129.66377 
L 414.374656 129.66377 
L 414.484789 128.618571 
L 414.54353 128.618571 
L 414.588867 126.528173 
L 414.656756 126.528173 
L 414.657238 125.482974 
L 414.818993 125.482974 
L 414.88948 122.347377 
L 414.937532 122.347377 
L 415.005142 120.256979 
L 415.133861 120.256979 
L 415.206227 118.689181 
L 415.278621 118.689181 
L 415.369959 116.598783 
L 415.422816 116.598783 
L 415.529818 114.508385 
L 415.60559 114.508385 
L 415.716664 112.417987 
L 415.780697 112.417987 
L 415.854002 110.32759 
L 415.993287 110.32759 
L 416.073718 108.237192 
L 416.123489 108.237192 
L 416.230746 104.578995 
L 416.251328 104.578995 
L 416.340209 101.965998 
L 416.373224 101.965998 
L 416.411915 99.353001 
L 416.511051 99.353001 
L 416.582587 97.262603 
L 416.645721 97.262603 
L 416.733039 92.559208 
L 416.76129 92.559208 
L 416.818317 91.514009 
L 416.914088 91.514009 
L 416.960698 89.946211 
L 417.04028 89.946211 
L 417.134301 88.378412 
L 417.153122 88.378412 
L 417.18522 86.810614 
L 417.279957 86.810614 
L 417.383767 84.197617 
L 417.433986 84.197617 
L 417.533274 82.629818 
L 417.547296 82.629818 
L 417.565672 81.06202 
L 417.702156 81.06202 
L 417.702156 80.53942 
L 417.84293 80.53942 
L 417.906862 78.971622 
L 417.987112 78.971622 
L 418.079128 76.881224 
L 418.169448 76.881224 
L 418.271774 73.745627 
L 418.302387 73.745627 
L 418.412457 71.13263 
L 418.484844 71.13263 
L 418.529902 69.042232 
L 418.626316 69.042232 
L 418.72722 66.429235 
L 418.763215 66.429235 
L 418.870774 61.72584 
L 418.908701 61.72584 
L 419.01235 58.590243 
L 419.040391 58.590243 
L 419.109927 56.499845 
L 419.165754 56.499845 
L 419.209637 53.364248 
L 419.312545 53.364248 
L 419.400097 50.751251 
L 419.452329 50.751251 
L 419.522155 49.706052 
L 419.579193 49.706052 
L 419.687903 48.660853 
L 419.737765 48.660853 
L 419.844254 45.525257 
L 419.86696 45.525257 
L 419.971506 43.434859 
L 419.995727 43.434859 
L 419.995727 42.912259 
L 420.186873 42.912259 
L 420.241799 41.344461 
L 420.29931 41.344461 
L 420.407955 38.731464 
L 420.553507 38.731464 
L 420.655223 36.641066 
L 420.667649 36.641066 
L 420.667649 36.118466 
L 420.794625 36.118466 
L 420.877553 35.073267 
L 420.920804 35.073267 
L 421.008257 34.028068 
L 421.03958 34.028068 
L 421.03958 33.505469 
L 421.196938 33.505469 
L 421.277585 32.46027 
L 421.365061 32.46027 
L 421.365061 31.937671 
L 421.568084 31.937671 
L 421.652634 30.892472 
L 421.702496 30.892472 
L 421.734955 29.847273 
L 421.954088 29.847273 
L 421.954088 29.324673 
L 422.112822 29.324673 
L 422.112822 28.802074 
L 422.542596 28.802074 
L 422.542596 28.279474 
L 422.722396 28.279474 
L 422.777957 27.234275 
L 422.843298 27.234275 
L 422.843298 26.711676 
L 423.186556 26.711676 
L 423.216613 25.666477 
L 423.408227 25.666477 
L 423.408227 25.143878 
L 423.606072 25.143878 
L 423.606072 24.621278 
L 423.759976 24.621278 
L 423.826474 23.576079 
L 424.510271 23.576079 
L 424.510271 23.05348 
L 424.693215 23.05348 
L 424.693215 22.53088 
L 424.980596 22.53088 
L 425.079737 21.485681 
L 425.588079 21.485681 
L 425.588079 20.963082 
L 425.842131 20.963082 
L 425.842131 20.440482 
L 426.114659 20.440482 
L 426.114659 19.917883 
L 426.336599 19.917883 
L 426.336599 19.395284 
L 426.476593 19.395284 
L 426.476593 18.872684 
L 426.945123 18.872684 
L 426.94571 17.827485 
L 429.365442 17.827485 
L 429.424068 16.782286 
L 429.489607 16.782286 
L 429.525628 15.737087 
L 429.646104 15.737087 
L 429.646104 15.214488 
L 430.044978 15.214488 
L 430.044978 14.691888 
L 430.324467 14.691888 
L 430.324467 14.169289 
L 430.483623 14.169289 
L 430.483623 13.646689 
L 430.607545 13.646689 
L 430.607545 13.12409 
L 431.959678 13.12409 
L 431.959678 12.601491 
L 432.075621 12.601491 
L 432.075621 12.078891 
L 432.876625 12.078891 
L 432.876625 11.556292 
L 433.141502 11.556292 
L 433.141502 11.033692 
L 433.670987 11.033692 
L 433.670987 10.511093 
L 435.746802 10.511093 
L 435.746802 9.988493 
L 437.245383 9.988493 
L 437.245383 9.465894 
L 437.63045 9.465894 
L 437.63045 8.943294 
L 437.788698 8.943294 
L 437.788698 8.420695 
L 439.811726 8.420695 
L 439.811726 7.898095 
L 441.753244 7.898095 
L 441.753244 7.375496 
L 444.287471 7.375496 
L 444.287471 6.852896 
L 445.574398 6.852896 
L 445.574398 6.330297 
L 445.574398 6.330297 
L 460.8 6.330297 
L 460.8 6.330297 
" clip-path="url(#p47cd9b1669)" style="fill: none; stroke: #ff0000; stroke-width: 3; stroke-linecap: square"/>
   </g>
   <g id="line2d_22">
    <path d="M 373.214363 293.76 
L 373.214363 293.237401 
L 375.268554 293.237401 
L 375.268554 292.714801 
L 379.510906 292.714801 
L 379.510906 292.192202 
L 380.517577 292.192202 
L 380.517577 291.669602 
L 386.037939 291.669602 
L 386.037939 291.147003 
L 386.785087 291.147003 
L 386.785087 290.624403 
L 386.971079 290.624403 
L 386.971079 290.101804 
L 387.971719 290.101804 
L 387.971719 289.579204 
L 389.929128 289.579204 
L 389.929128 289.056605 
L 390.562823 289.056605 
L 390.562823 288.534005 
L 391.121329 288.534005 
L 391.139725 287.488806 
L 391.604546 287.488806 
L 391.604546 286.966207 
L 391.916356 286.966207 
L 391.916356 286.443608 
L 392.415023 286.443608 
L 392.415023 285.921008 
L 392.786739 285.921008 
L 392.786739 285.398409 
L 392.959625 285.398409 
L 393.040732 283.83061 
L 393.452511 283.83061 
L 393.452511 283.308011 
L 393.829334 283.308011 
L 393.829334 282.785411 
L 394.351006 282.785411 
L 394.351006 282.262812 
L 394.718713 282.262812 
L 394.718713 281.740212 
L 395.257005 281.740212 
L 395.257005 281.217613 
L 397.122098 281.217613 
L 397.122098 280.695014 
L 397.872822 280.695014 
L 397.90655 279.649815 
L 398.608686 279.649815 
L 398.608686 279.127215 
L 398.936847 279.127215 
L 398.936847 278.604616 
L 399.268574 278.604616 
L 399.328157 277.559417 
L 399.436033 277.559417 
L 399.436033 277.036817 
L 399.832786 277.036817 
L 399.832786 276.514218 
L 399.974356 276.514218 
L 399.974356 275.991618 
L 400.11929 275.991618 
L 400.11929 275.469019 
L 400.382353 275.469019 
L 400.382353 274.946419 
L 400.514849 274.946419 
L 400.614476 273.901221 
L 400.75103 273.901221 
L 400.852548 272.856022 
L 400.909282 272.856022 
L 400.909282 272.333422 
L 401.02789 272.333422 
L 401.02789 271.810823 
L 401.442394 271.810823 
L 401.531662 270.243024 
L 401.658692 270.243024 
L 401.673533 269.197825 
L 401.986524 269.197825 
L 401.986524 268.675226 
L 402.346316 268.675226 
L 402.388407 267.630027 
L 402.482912 267.630027 
L 402.482912 267.107428 
L 402.655287 267.107428 
L 402.656749 266.062229 
L 402.847962 266.062229 
L 402.937673 265.01703 
L 402.97166 265.01703 
L 403.074241 262.926632 
L 403.107031 262.926632 
L 403.135068 261.881433 
L 403.264266 261.881433 
L 403.349131 260.313635 
L 403.409848 260.313635 
L 403.477578 258.745836 
L 403.791985 258.745836 
L 403.888229 257.178038 
L 403.987775 257.178038 
L 404.094011 254.565041 
L 404.137524 254.565041 
L 404.201612 252.997242 
L 404.283623 252.997242 
L 404.369129 251.429444 
L 404.463664 251.429444 
L 404.463664 250.906844 
L 404.592438 250.906844 
L 404.677785 248.816446 
L 404.98039 248.816446 
L 405.027158 247.771248 
L 405.175622 247.771248 
L 405.17591 246.726049 
L 405.362336 246.726049 
L 405.460247 243.590452 
L 405.491921 243.590452 
L 405.548969 242.545253 
L 405.615212 242.545253 
L 405.69371 239.932256 
L 405.753232 239.932256 
L 405.829465 237.841858 
L 405.874048 237.841858 
L 405.891923 236.796659 
L 406.312833 236.796659 
L 406.397503 234.706261 
L 406.432412 234.706261 
L 406.540595 233.661062 
L 406.611897 233.661062 
L 406.714936 232.615863 
L 406.767553 232.615863 
L 406.86492 231.048065 
L 406.891356 231.048065 
L 406.919512 227.912468 
L 407.057121 227.912468 
L 407.114727 226.34467 
L 407.219929 226.34467 
L 407.326204 225.299471 
L 407.419013 225.299471 
L 407.493064 223.731672 
L 407.58338 223.731672 
L 407.691059 222.163874 
L 407.77662 222.163874 
L 407.82724 219.550877 
L 407.924705 219.550877 
L 408.009242 217.460479 
L 408.163404 217.460479 
L 408.190815 215.89268 
L 408.339745 215.89268 
L 408.355272 214.847482 
L 408.460182 214.847482 
L 408.533092 211.711885 
L 408.575788 211.711885 
L 408.641021 210.666686 
L 408.70824 210.666686 
L 408.781394 209.621487 
L 408.827841 209.621487 
L 408.919672 208.576288 
L 408.958297 208.576288 
L 409.007638 204.395492 
L 409.101031 204.395492 
L 409.174656 202.305095 
L 409.212567 202.305095 
L 409.288615 200.214697 
L 409.365193 200.214697 
L 409.383547 199.169498 
L 409.47957 199.169498 
L 409.582741 197.601699 
L 409.660186 197.601699 
L 409.730682 195.511302 
L 409.784321 195.511302 
L 409.835332 193.420904 
L 409.899312 193.420904 
L 409.958359 191.853105 
L 410.014729 191.853105 
L 410.092274 189.762707 
L 410.3324 189.762707 
L 410.364608 188.717509 
L 410.502746 188.717509 
L 410.558047 186.104511 
L 410.673022 186.104511 
L 410.728602 182.968914 
L 410.873616 182.968914 
L 410.970907 178.788119 
L 411.049547 178.788119 
L 411.101092 177.74292 
L 411.185223 177.74292 
L 411.234847 176.697721 
L 411.315237 176.697721 
L 411.424362 175.129923 
L 411.429639 175.129923 
L 411.523977 173.562124 
L 411.562722 173.562124 
L 411.664981 170.949127 
L 411.674928 170.949127 
L 411.766648 168.33613 
L 411.794335 168.33613 
L 411.868025 166.245732 
L 411.912559 166.245732 
L 411.996048 164.677933 
L 412.113956 164.677933 
L 412.199435 162.064936 
L 412.288523 162.064936 
L 412.390469 159.974538 
L 412.449627 159.974538 
L 412.50821 157.88414 
L 412.561578 157.88414 
L 412.59823 156.838941 
L 412.704225 156.838941 
L 412.799458 154.748544 
L 412.8893 154.748544 
L 412.970454 152.658146 
L 413.029022 152.658146 
L 413.109194 150.567748 
L 413.147239 150.567748 
L 413.250029 148.99995 
L 413.266577 148.99995 
L 413.374467 145.864353 
L 413.480248 145.864353 
L 413.523206 144.296554 
L 413.617833 144.296554 
L 413.720263 142.206157 
L 413.739707 142.206157 
L 413.840309 138.54796 
L 413.851556 138.54796 
L 413.936573 135.412364 
L 413.999061 135.412364 
L 414.086634 133.321966 
L 414.121504 133.321966 
L 414.209215 131.754167 
L 414.239112 131.754167 
L 414.300706 129.66377 
L 414.374656 129.66377 
L 414.484789 128.618571 
L 414.54353 128.618571 
L 414.588867 126.528173 
L 414.656756 126.528173 
L 414.657238 125.482974 
L 414.818993 125.482974 
L 414.88948 122.347377 
L 414.937532 122.347377 
L 415.005142 120.256979 
L 415.133861 120.256979 
L 415.206227 118.689181 
L 415.278621 118.689181 
L 415.369959 116.598783 
L 415.422816 116.598783 
L 415.529818 114.508385 
L 415.60559 114.508385 
L 415.716664 112.417987 
L 415.780697 112.417987 
L 415.854002 110.32759 
L 415.993287 110.32759 
L 416.073718 108.237192 
L 416.123489 108.237192 
L 416.230746 104.578995 
L 416.251328 104.578995 
L 416.340209 101.965998 
L 416.373224 101.965998 
L 416.411915 99.353001 
L 416.511051 99.353001 
L 416.582587 97.262603 
L 416.645721 97.262603 
L 416.733039 93.081807 
L 416.76129 93.081807 
L 416.818317 92.036608 
L 416.914088 92.036608 
L 416.960698 90.46881 
L 417.04028 90.46881 
L 417.134301 88.378412 
L 417.153122 88.378412 
L 417.18522 86.810614 
L 417.279957 86.810614 
L 417.383767 84.197617 
L 417.433986 84.197617 
L 417.533274 82.629818 
L 417.547296 82.629818 
L 417.565672 81.06202 
L 417.702156 81.06202 
L 417.702156 80.53942 
L 417.84293 80.53942 
L 417.906862 78.971622 
L 417.987112 78.971622 
L 418.079128 76.881224 
L 418.169448 76.881224 
L 418.271774 73.745627 
L 418.302387 73.745627 
L 418.412457 71.13263 
L 418.484844 71.13263 
L 418.529902 69.042232 
L 418.626316 69.042232 
L 418.72722 66.429235 
L 418.763215 66.429235 
L 418.870774 61.72584 
L 418.908701 61.72584 
L 419.01235 58.590243 
L 419.040391 58.590243 
L 419.109927 56.499845 
L 419.165754 56.499845 
L 419.209637 53.364248 
L 419.312545 53.364248 
L 419.400097 50.751251 
L 419.452329 50.751251 
L 419.522155 49.706052 
L 419.579193 49.706052 
L 419.687903 48.660853 
L 419.737765 48.660853 
L 419.844254 45.525257 
L 419.86696 45.525257 
L 419.971506 43.434859 
L 419.995727 43.434859 
L 419.995727 42.912259 
L 420.186873 42.912259 
L 420.241799 41.344461 
L 420.29931 41.344461 
L 420.407955 38.731464 
L 420.553507 38.731464 
L 420.655223 36.641066 
L 420.667649 36.641066 
L 420.667649 36.118466 
L 420.794625 36.118466 
L 420.877553 35.073267 
L 420.920804 35.073267 
L 421.008257 34.028068 
L 421.03958 34.028068 
L 421.03958 33.505469 
L 421.196938 33.505469 
L 421.277585 32.46027 
L 421.365061 32.46027 
L 421.365061 31.937671 
L 421.568084 31.937671 
L 421.652634 30.892472 
L 421.702496 30.892472 
L 421.734955 29.847273 
L 421.954088 29.847273 
L 421.954088 29.324673 
L 422.112822 29.324673 
L 422.112822 28.802074 
L 422.542596 28.802074 
L 422.542596 28.279474 
L 422.722396 28.279474 
L 422.777957 27.234275 
L 422.843298 27.234275 
L 422.843298 26.711676 
L 423.186556 26.711676 
L 423.216613 25.666477 
L 423.408227 25.666477 
L 423.408227 25.143878 
L 423.606072 25.143878 
L 423.606072 24.621278 
L 423.759976 24.621278 
L 423.826474 23.576079 
L 424.510271 23.576079 
L 424.510271 23.05348 
L 424.693215 23.05348 
L 424.693215 22.53088 
L 424.980596 22.53088 
L 425.079737 21.485681 
L 425.842131 21.485681 
L 425.842131 20.963082 
L 426.114659 20.963082 
L 426.114659 20.440482 
L 426.336599 20.440482 
L 426.336599 19.917883 
L 426.476593 19.917883 
L 426.476593 19.395284 
L 426.945123 19.395284 
L 426.94571 18.350085 
L 428.822117 18.350085 
L 428.822117 17.827485 
L 429.365442 17.827485 
L 429.424068 16.782286 
L 429.489607 16.782286 
L 429.525628 15.737087 
L 429.646104 15.737087 
L 429.646104 15.214488 
L 430.044978 15.214488 
L 430.044978 14.691888 
L 430.483623 14.691888 
L 430.483623 14.169289 
L 430.607545 14.169289 
L 430.607545 13.646689 
L 431.959678 13.646689 
L 431.959678 13.12409 
L 432.075621 13.12409 
L 432.075621 12.601491 
L 432.794915 12.601491 
L 432.794915 12.078891 
L 433.141502 12.078891 
L 433.141502 11.556292 
L 433.670987 11.556292 
L 433.670987 11.033692 
L 433.871794 11.033692 
L 433.871794 10.511093 
L 435.746802 10.511093 
L 435.746802 9.988493 
L 437.245383 9.988493 
L 437.245383 9.465894 
L 439.811726 9.465894 
L 439.811726 8.943294 
L 440.45513 8.943294 
L 440.45513 8.420695 
L 441.753244 8.420695 
L 441.753244 7.898095 
L 444.287471 7.898095 
L 444.287471 7.375496 
L 445.574398 7.375496 
L 445.574398 6.852896 
L 456.629255 6.852896 
L 456.629255 6.330297 
L 456.629255 6.330297 
L 460.8 6.330297 
L 460.8 6.330297 
" clip-path="url(#p47cd9b1669)" style="fill: none; stroke: #00bfbf; stroke-width: 1.5; stroke-linecap: square"/>
   </g>
   <g id="line2d_23">
    <path d="M 373.214363 293.76 
L 373.214363 293.237401 
L 375.268554 293.237401 
L 375.268554 292.714801 
L 379.510906 292.714801 
L 379.510906 292.192202 
L 380.517577 292.192202 
L 380.517577 291.669602 
L 386.037939 291.669602 
L 386.037939 291.147003 
L 386.785087 291.147003 
L 386.785087 290.624403 
L 386.971079 290.624403 
L 386.971079 290.101804 
L 387.971719 290.101804 
L 387.971719 289.579204 
L 389.929128 289.579204 
L 389.929128 289.056605 
L 390.562823 289.056605 
L 390.562823 288.534005 
L 391.121329 288.534005 
L 391.139725 287.488806 
L 391.604546 287.488806 
L 391.604546 286.966207 
L 391.916356 286.966207 
L 391.916356 286.443608 
L 392.415023 286.443608 
L 392.415023 285.921008 
L 392.786739 285.921008 
L 392.786739 285.398409 
L 392.959625 285.398409 
L 393.040732 283.83061 
L 393.452511 283.83061 
L 393.452511 283.308011 
L 393.829334 283.308011 
L 393.829334 282.785411 
L 394.351006 282.785411 
L 394.351006 282.262812 
L 394.718713 282.262812 
L 394.718713 281.740212 
L 395.257005 281.740212 
L 395.257005 281.217613 
L 397.122098 281.217613 
L 397.122098 280.695014 
L 397.872822 280.695014 
L 397.90655 279.649815 
L 398.608686 279.649815 
L 398.608686 279.127215 
L 398.936847 279.127215 
L 398.936847 278.604616 
L 399.268574 278.604616 
L 399.328157 277.559417 
L 399.436033 277.559417 
L 399.436033 277.036817 
L 399.832786 277.036817 
L 399.832786 276.514218 
L 399.974356 276.514218 
L 399.974356 275.991618 
L 400.11929 275.991618 
L 400.11929 275.469019 
L 400.382353 275.469019 
L 400.382353 274.946419 
L 400.514849 274.946419 
L 400.614476 273.901221 
L 400.75103 273.901221 
L 400.852548 272.856022 
L 400.909282 272.856022 
L 400.909282 272.333422 
L 401.02789 272.333422 
L 401.02789 271.810823 
L 401.442394 271.810823 
L 401.531662 270.243024 
L 401.658692 270.243024 
L 401.673533 269.197825 
L 401.986524 269.197825 
L 401.986524 268.675226 
L 402.346316 268.675226 
L 402.388407 267.630027 
L 402.482912 267.630027 
L 402.482912 267.107428 
L 402.655287 267.107428 
L 402.656749 266.062229 
L 402.847962 266.062229 
L 402.937673 265.01703 
L 402.97166 265.01703 
L 403.074241 262.926632 
L 403.107031 262.926632 
L 403.135068 261.881433 
L 403.264266 261.881433 
L 403.349131 260.313635 
L 403.409848 260.313635 
L 403.477578 258.745836 
L 403.791985 258.745836 
L 403.888229 257.178038 
L 403.987775 257.178038 
L 404.094011 254.565041 
L 404.137524 254.565041 
L 404.201612 252.997242 
L 404.283623 252.997242 
L 404.369129 251.429444 
L 404.463664 251.429444 
L 404.463664 250.906844 
L 404.592438 250.906844 
L 404.677785 248.816446 
L 404.98039 248.816446 
L 405.027158 247.771248 
L 405.175622 247.771248 
L 405.17591 246.726049 
L 405.362336 246.726049 
L 405.460247 243.590452 
L 405.491921 243.590452 
L 405.548969 242.545253 
L 405.615212 242.545253 
L 405.69371 239.932256 
L 405.753232 239.932256 
L 405.829465 237.841858 
L 405.874048 237.841858 
L 405.891923 236.796659 
L 406.312833 236.796659 
L 406.397503 234.706261 
L 406.432412 234.706261 
L 406.540595 233.661062 
L 406.611897 233.661062 
L 406.714936 232.615863 
L 406.767553 232.615863 
L 406.86492 231.048065 
L 406.891356 231.048065 
L 406.919512 227.912468 
L 407.057121 227.912468 
L 407.114727 226.34467 
L 407.219929 226.34467 
L 407.326204 225.299471 
L 407.419013 225.299471 
L 407.493064 223.731672 
L 407.58338 223.731672 
L 407.691059 222.163874 
L 407.77662 222.163874 
L 407.82724 219.550877 
L 407.924705 219.550877 
L 408.009242 217.460479 
L 408.163404 217.460479 
L 408.190815 215.89268 
L 408.339745 215.89268 
L 408.355272 214.847482 
L 408.460182 214.847482 
L 408.533092 211.711885 
L 408.575788 211.711885 
L 408.641021 210.666686 
L 408.70824 210.666686 
L 408.781394 209.621487 
L 408.827841 209.621487 
L 408.919672 208.576288 
L 408.958297 208.576288 
L 409.007638 204.395492 
L 409.101031 204.395492 
L 409.174656 202.305095 
L 409.212567 202.305095 
L 409.288615 200.214697 
L 409.365193 200.214697 
L 409.383547 199.169498 
L 409.47957 199.169498 
L 409.582741 197.601699 
L 409.660186 197.601699 
L 409.730682 195.511302 
L 409.784321 195.511302 
L 409.835332 193.420904 
L 409.899312 193.420904 
L 409.958359 191.853105 
L 410.014729 191.853105 
L 410.092274 189.762707 
L 410.3324 189.762707 
L 410.364608 188.717509 
L 410.502746 188.717509 
L 410.558047 186.104511 
L 410.673022 186.104511 
L 410.728602 182.968914 
L 410.873616 182.968914 
L 410.970907 178.788119 
L 411.049547 178.788119 
L 411.101092 177.74292 
L 411.185223 177.74292 
L 411.234847 176.697721 
L 411.315237 176.697721 
L 411.424362 175.129923 
L 411.429639 175.129923 
L 411.523977 173.562124 
L 411.562722 173.562124 
L 411.664981 170.949127 
L 411.674928 170.949127 
L 411.766648 168.33613 
L 411.794335 168.33613 
L 411.868025 166.245732 
L 411.912559 166.245732 
L 411.996048 164.677933 
L 412.113956 164.677933 
L 412.199435 162.064936 
L 412.288523 162.064936 
L 412.390469 159.974538 
L 412.449627 159.974538 
L 412.50821 157.88414 
L 412.561578 157.88414 
L 412.59823 156.838941 
L 412.704225 156.838941 
L 412.799458 154.748544 
L 412.8893 154.748544 
L 412.970454 152.658146 
L 413.029022 152.658146 
L 413.109194 150.567748 
L 413.147239 150.567748 
L 413.250029 148.99995 
L 413.266577 148.99995 
L 413.374467 145.864353 
L 413.480248 145.864353 
L 413.523206 144.296554 
L 413.617833 144.296554 
L 413.720263 142.206157 
L 413.739707 142.206157 
L 413.840309 138.54796 
L 413.851556 138.54796 
L 413.936573 135.412364 
L 413.999061 135.412364 
L 414.086634 133.321966 
L 414.121504 133.321966 
L 414.209215 131.754167 
L 414.239112 131.754167 
L 414.300706 129.66377 
L 414.374656 129.66377 
L 414.484789 128.618571 
L 414.54353 128.618571 
L 414.588867 126.528173 
L 414.656756 126.528173 
L 414.657238 125.482974 
L 414.818993 125.482974 
L 414.88948 122.347377 
L 414.937532 122.347377 
L 415.005142 120.256979 
L 415.133861 120.256979 
L 415.206227 118.689181 
L 415.278621 118.689181 
L 415.369959 116.598783 
L 415.422816 116.598783 
L 415.529818 114.508385 
L 415.60559 114.508385 
L 415.716664 112.417987 
L 415.780697 112.417987 
L 415.854002 110.32759 
L 415.993287 110.32759 
L 416.073718 108.237192 
L 416.123489 108.237192 
L 416.230746 104.578995 
L 416.251328 104.578995 
L 416.340209 101.965998 
L 416.373224 101.965998 
L 416.411915 99.353001 
L 416.511051 99.353001 
L 416.582587 97.262603 
L 416.645721 97.262603 
L 416.733039 93.081807 
L 416.76129 93.081807 
L 416.818317 92.036608 
L 416.914088 92.036608 
L 416.960698 90.46881 
L 417.04028 90.46881 
L 417.134301 88.378412 
L 417.153122 88.378412 
L 417.18522 86.810614 
L 417.279957 86.810614 
L 417.383767 84.197617 
L 417.433986 84.197617 
L 417.533274 82.629818 
L 417.547296 82.629818 
L 417.565672 81.06202 
L 417.702156 81.06202 
L 417.702156 80.53942 
L 417.84293 80.53942 
L 417.906862 78.971622 
L 417.987112 78.971622 
L 418.079128 76.881224 
L 418.169448 76.881224 
L 418.271774 73.745627 
L 418.302387 73.745627 
L 418.412457 71.13263 
L 418.484844 71.13263 
L 418.529902 69.042232 
L 418.626316 69.042232 
L 418.72722 66.429235 
L 418.763215 66.429235 
L 418.870774 61.72584 
L 418.908701 61.72584 
L 419.01235 58.590243 
L 419.040391 58.590243 
L 419.109927 56.499845 
L 419.165754 56.499845 
L 419.209637 53.364248 
L 419.312545 53.364248 
L 419.400097 50.751251 
L 419.452329 50.751251 
L 419.522155 49.706052 
L 419.579193 49.706052 
L 419.687903 48.660853 
L 419.737765 48.660853 
L 419.844254 45.525257 
L 419.86696 45.525257 
L 419.971506 43.434859 
L 419.995727 43.434859 
L 419.995727 42.912259 
L 420.186873 42.912259 
L 420.241799 41.344461 
L 420.29931 41.344461 
L 420.407955 38.731464 
L 420.553507 38.731464 
L 420.655223 36.641066 
L 420.667649 36.641066 
L 420.667649 36.118466 
L 420.794625 36.118466 
L 420.877553 35.073267 
L 420.920804 35.073267 
L 421.008257 34.028068 
L 421.03958 34.028068 
L 421.03958 33.505469 
L 421.196938 33.505469 
L 421.277585 32.46027 
L 421.365061 32.46027 
L 421.365061 31.937671 
L 421.568084 31.937671 
L 421.652634 30.892472 
L 421.702496 30.892472 
L 421.734955 29.847273 
L 421.954088 29.847273 
L 421.954088 29.324673 
L 422.112822 29.324673 
L 422.112822 28.802074 
L 422.542596 28.802074 
L 422.542596 28.279474 
L 422.722396 28.279474 
L 422.777957 27.234275 
L 422.843298 27.234275 
L 422.843298 26.711676 
L 423.186556 26.711676 
L 423.216613 25.666477 
L 423.408227 25.666477 
L 423.408227 25.143878 
L 423.606072 25.143878 
L 423.606072 24.621278 
L 423.759976 24.621278 
L 423.826474 23.576079 
L 424.510271 23.576079 
L 424.510271 23.05348 
L 424.693215 23.05348 
L 424.693215 22.53088 
L 424.980596 22.53088 
L 425.079737 21.485681 
L 425.842131 21.485681 
L 425.842131 20.963082 
L 426.114659 20.963082 
L 426.114659 20.440482 
L 426.336599 20.440482 
L 426.336599 19.917883 
L 426.476593 19.917883 
L 426.476593 19.395284 
L 426.945123 19.395284 
L 426.94571 18.350085 
L 428.822117 18.350085 
L 428.822117 17.827485 
L 429.365442 17.827485 
L 429.424068 16.782286 
L 429.489607 16.782286 
L 429.525628 15.737087 
L 429.646104 15.737087 
L 429.646104 15.214488 
L 430.044978 15.214488 
L 430.044978 14.691888 
L 430.483623 14.691888 
L 430.483623 14.169289 
L 430.607545 14.169289 
L 430.607545 13.646689 
L 431.959678 13.646689 
L 431.959678 13.12409 
L 432.075621 13.12409 
L 432.075621 12.601491 
L 432.794915 12.601491 
L 432.794915 12.078891 
L 433.141502 12.078891 
L 433.143902 11.033692 
L 433.670987 11.033692 
L 433.670987 10.511093 
L 435.746802 10.511093 
L 435.746802 9.988493 
L 437.245383 9.988493 
L 437.245383 9.465894 
L 439.811726 9.465894 
L 439.839707 8.420695 
L 441.753244 8.420695 
L 441.753244 7.898095 
L 444.287471 7.898095 
L 444.287471 7.375496 
L 445.574398 7.375496 
L 445.574398 6.852896 
L 456.336117 6.852896 
L 456.336117 6.330297 
L 456.336117 6.330297 
L 460.8 6.330297 
L 460.8 6.330297 
" clip-path="url(#p47cd9b1669)" style="fill: none; stroke: #bf00bf; stroke-width: 1.5; stroke-linecap: square"/>
   </g>
   <g id="line2d_24">
    <path d="M 373.214363 293.76 
L 373.214363 293.237401 
L 375.268554 293.237401 
L 375.268554 292.714801 
L 379.510906 292.714801 
L 379.510906 292.192202 
L 380.517577 292.192202 
L 380.517577 291.669602 
L 386.037939 291.669602 
L 386.037939 291.147003 
L 386.785087 291.147003 
L 386.785087 290.624403 
L 386.971079 290.624403 
L 386.971079 290.101804 
L 387.971719 290.101804 
L 387.971719 289.579204 
L 389.929128 289.579204 
L 389.929128 289.056605 
L 390.562823 289.056605 
L 390.562823 288.534005 
L 391.121329 288.534005 
L 391.139725 287.488806 
L 391.604546 287.488806 
L 391.604546 286.966207 
L 391.916356 286.966207 
L 391.916356 286.443608 
L 392.415023 286.443608 
L 392.415023 285.921008 
L 392.786739 285.921008 
L 392.786739 285.398409 
L 392.959625 285.398409 
L 393.040732 283.83061 
L 393.452511 283.83061 
L 393.452511 283.308011 
L 393.829334 283.308011 
L 393.829334 282.785411 
L 394.351006 282.785411 
L 394.351006 282.262812 
L 394.718713 282.262812 
L 394.718713 281.740212 
L 395.257005 281.740212 
L 395.257005 281.217613 
L 397.122098 281.217613 
L 397.122098 280.695014 
L 397.872822 280.695014 
L 397.90655 279.649815 
L 398.608686 279.649815 
L 398.608686 279.127215 
L 398.936847 279.127215 
L 398.936847 278.604616 
L 399.268574 278.604616 
L 399.328157 277.559417 
L 399.436033 277.559417 
L 399.436033 277.036817 
L 399.832786 277.036817 
L 399.832786 276.514218 
L 399.974356 276.514218 
L 399.974356 275.991618 
L 400.11929 275.991618 
L 400.11929 275.469019 
L 400.382353 275.469019 
L 400.382353 274.946419 
L 400.514849 274.946419 
L 400.614476 273.901221 
L 400.75103 273.901221 
L 400.852548 272.856022 
L 400.909282 272.856022 
L 400.909282 272.333422 
L 401.02789 272.333422 
L 401.02789 271.810823 
L 401.442394 271.810823 
L 401.531662 270.243024 
L 401.658692 270.243024 
L 401.673533 269.197825 
L 401.986524 269.197825 
L 401.986524 268.675226 
L 402.346316 268.675226 
L 402.388407 267.630027 
L 402.482912 267.630027 
L 402.482912 267.107428 
L 402.655287 267.107428 
L 402.656749 266.062229 
L 402.847962 266.062229 
L 402.937673 265.01703 
L 402.97166 265.01703 
L 403.074241 262.926632 
L 403.107031 262.926632 
L 403.135068 261.881433 
L 403.264266 261.881433 
L 403.349131 260.313635 
L 403.409848 260.313635 
L 403.477578 258.745836 
L 403.59577 258.745836 
L 403.59577 258.223237 
L 403.791985 258.223237 
L 403.888229 256.132839 
L 403.987775 256.132839 
L 404.094011 253.519842 
L 404.183843 253.519842 
L 404.291603 251.429444 
L 404.369129 251.429444 
L 404.463664 250.384245 
L 404.592438 250.384245 
L 404.677785 248.293847 
L 404.98039 248.293847 
L 405.027158 247.248648 
L 405.175622 247.248648 
L 405.17591 246.203449 
L 405.362336 246.203449 
L 405.460247 243.067852 
L 405.491921 243.067852 
L 405.548969 242.022653 
L 405.615212 242.022653 
L 405.69371 239.409656 
L 405.753232 239.409656 
L 405.829465 237.319258 
L 405.874048 237.319258 
L 405.891923 236.274059 
L 406.312833 236.274059 
L 406.397503 234.183662 
L 406.432412 234.183662 
L 406.540595 233.138463 
L 406.611897 233.138463 
L 406.714936 232.093264 
L 406.767553 232.093264 
L 406.86492 230.525465 
L 406.891356 230.525465 
L 406.919512 227.389869 
L 407.057121 227.389869 
L 407.114727 225.82207 
L 407.219929 225.82207 
L 407.326204 224.776871 
L 407.419013 224.776871 
L 407.493064 223.209073 
L 407.58338 223.209073 
L 407.691059 221.641275 
L 407.77662 221.641275 
L 407.82724 219.028277 
L 407.924705 219.028277 
L 408.009242 217.460479 
L 408.163404 217.460479 
L 408.190815 215.89268 
L 408.339745 215.89268 
L 408.355272 214.847482 
L 408.460182 214.847482 
L 408.533092 211.711885 
L 408.575788 211.711885 
L 408.641021 210.666686 
L 408.70824 210.666686 
L 408.781394 209.621487 
L 408.827841 209.621487 
L 408.919672 208.576288 
L 408.958297 208.576288 
L 409.007638 204.395492 
L 409.101031 204.395492 
L 409.174656 202.305095 
L 409.212567 202.305095 
L 409.288615 200.214697 
L 409.365193 200.214697 
L 409.383547 199.169498 
L 409.47957 199.169498 
L 409.582741 197.601699 
L 409.660186 197.601699 
L 409.730682 195.511302 
L 409.784321 195.511302 
L 409.835332 193.420904 
L 409.899312 193.420904 
L 409.958359 191.853105 
L 410.014729 191.853105 
L 410.092274 189.762707 
L 410.3324 189.762707 
L 410.364608 188.717509 
L 410.502746 188.717509 
L 410.558047 186.104511 
L 410.673022 186.104511 
L 410.728602 182.968914 
L 410.873616 182.968914 
L 410.970907 178.788119 
L 411.049547 178.788119 
L 411.101092 177.74292 
L 411.185223 177.74292 
L 411.234847 176.697721 
L 411.315237 176.697721 
L 411.424362 175.129923 
L 411.429639 175.129923 
L 411.523977 173.562124 
L 411.562722 173.562124 
L 411.664981 170.949127 
L 411.674928 170.949127 
L 411.766648 168.33613 
L 411.794335 168.33613 
L 411.868025 166.245732 
L 411.912559 166.245732 
L 411.996048 164.677933 
L 412.113956 164.677933 
L 412.199435 162.064936 
L 412.288523 162.064936 
L 412.390469 159.974538 
L 412.449627 159.974538 
L 412.50821 157.88414 
L 412.561578 157.88414 
L 412.59823 156.838941 
L 412.704225 156.838941 
L 412.799458 154.748544 
L 412.8893 154.748544 
L 412.970454 152.658146 
L 413.029022 152.658146 
L 413.109194 150.567748 
L 413.147239 150.567748 
L 413.250029 148.99995 
L 413.266577 148.99995 
L 413.374467 145.864353 
L 413.480248 145.864353 
L 413.523206 144.296554 
L 413.617833 144.296554 
L 413.720263 142.206157 
L 413.739707 142.206157 
L 413.840309 138.54796 
L 413.851556 138.54796 
L 413.936573 135.412364 
L 413.999061 135.412364 
L 414.086634 133.321966 
L 414.121504 133.321966 
L 414.209215 131.754167 
L 414.239112 131.754167 
L 414.300706 129.66377 
L 414.374656 129.66377 
L 414.484789 128.618571 
L 414.54353 128.618571 
L 414.588867 126.528173 
L 414.656756 126.528173 
L 414.657238 125.482974 
L 414.818993 125.482974 
L 414.88948 122.347377 
L 414.937532 122.347377 
L 415.005142 120.256979 
L 415.133861 120.256979 
L 415.206227 118.689181 
L 415.278621 118.689181 
L 415.369959 116.598783 
L 415.422816 116.598783 
L 415.529818 114.508385 
L 415.60559 114.508385 
L 415.716664 112.417987 
L 415.780697 112.417987 
L 415.854002 110.32759 
L 415.993287 110.32759 
L 416.073718 108.237192 
L 416.123489 108.237192 
L 416.230746 104.578995 
L 416.251328 104.578995 
L 416.340209 101.965998 
L 416.373224 101.965998 
L 416.411915 99.353001 
L 416.511051 99.353001 
L 416.582587 97.262603 
L 416.645721 97.262603 
L 416.733039 93.081807 
L 416.76129 93.081807 
L 416.818317 92.036608 
L 416.914088 92.036608 
L 416.960698 90.46881 
L 417.04028 90.46881 
L 417.134301 88.378412 
L 417.153122 88.378412 
L 417.18522 86.810614 
L 417.279957 86.810614 
L 417.383767 84.197617 
L 417.433986 84.197617 
L 417.533274 82.629818 
L 417.547296 82.629818 
L 417.565672 81.06202 
L 417.702156 81.06202 
L 417.702156 80.53942 
L 417.84293 80.53942 
L 417.906862 78.971622 
L 417.987112 78.971622 
L 418.079128 76.881224 
L 418.169448 76.881224 
L 418.271774 73.745627 
L 418.302387 73.745627 
L 418.412457 71.13263 
L 418.484844 71.13263 
L 418.529902 69.042232 
L 418.626316 69.042232 
L 418.72722 66.429235 
L 418.763215 66.429235 
L 418.870774 61.72584 
L 418.908701 61.72584 
L 419.01235 58.590243 
L 419.040391 58.590243 
L 419.109927 56.499845 
L 419.165754 56.499845 
L 419.209637 53.364248 
L 419.312545 53.364248 
L 419.400097 50.751251 
L 419.452329 50.751251 
L 419.522155 49.706052 
L 419.579193 49.706052 
L 419.687903 48.660853 
L 419.737765 48.660853 
L 419.844254 45.525257 
L 419.86696 45.525257 
L 419.971506 43.434859 
L 419.995727 43.434859 
L 419.995727 42.912259 
L 420.186873 42.912259 
L 420.241799 41.344461 
L 420.29931 41.344461 
L 420.407955 38.731464 
L 420.553507 38.731464 
L 420.655223 36.641066 
L 420.667649 36.641066 
L 420.667649 36.118466 
L 420.794625 36.118466 
L 420.877553 35.073267 
L 420.920804 35.073267 
L 421.008257 34.028068 
L 421.03958 34.028068 
L 421.03958 33.505469 
L 421.196938 33.505469 
L 421.277585 32.46027 
L 421.365061 32.46027 
L 421.365061 31.937671 
L 421.568084 31.937671 
L 421.652634 30.892472 
L 421.702496 30.892472 
L 421.734955 29.847273 
L 421.954088 29.847273 
L 421.954088 29.324673 
L 422.112822 29.324673 
L 422.112822 28.802074 
L 422.542596 28.802074 
L 422.542596 28.279474 
L 422.722396 28.279474 
L 422.777957 27.234275 
L 422.843298 27.234275 
L 422.843298 26.711676 
L 423.186556 26.711676 
L 423.216613 25.666477 
L 423.408227 25.666477 
L 423.408227 25.143878 
L 423.606072 25.143878 
L 423.606072 24.621278 
L 423.759976 24.621278 
L 423.826474 23.576079 
L 424.510271 23.576079 
L 424.510271 23.05348 
L 424.693215 23.05348 
L 424.693215 22.53088 
L 424.980596 22.53088 
L 425.079737 21.485681 
L 425.842131 21.485681 
L 425.842131 20.963082 
L 426.114659 20.963082 
L 426.114659 20.440482 
L 426.336599 20.440482 
L 426.336599 19.917883 
L 426.476593 19.917883 
L 426.476593 19.395284 
L 426.945123 19.395284 
L 426.94571 18.350085 
L 428.822117 18.350085 
L 428.822117 17.827485 
L 429.365442 17.827485 
L 429.424068 16.782286 
L 429.489607 16.782286 
L 429.525628 15.737087 
L 429.646104 15.737087 
L 429.646104 15.214488 
L 430.044978 15.214488 
L 430.044978 14.691888 
L 430.483623 14.691888 
L 430.483623 14.169289 
L 430.607545 14.169289 
L 430.607545 13.646689 
L 430.718672 13.646689 
L 430.718672 13.12409 
L 431.959678 13.12409 
L 431.959678 12.601491 
L 432.075621 12.601491 
L 432.075621 12.078891 
L 433.141502 12.078891 
L 433.143902 11.033692 
L 433.670987 11.033692 
L 433.670987 10.511093 
L 435.746802 10.511093 
L 435.746802 9.988493 
L 437.245383 9.988493 
L 437.245383 9.465894 
L 438.214975 9.465894 
L 438.214975 8.943294 
L 439.811726 8.943294 
L 439.811726 8.420695 
L 441.753244 8.420695 
L 441.753244 7.898095 
L 444.287471 7.898095 
L 444.287471 7.375496 
L 445.574398 7.375496 
L 445.574398 6.852896 
L 450.454241 6.852896 
L 450.454241 6.330297 
L 450.454241 6.330297 
L 460.8 6.330297 
L 460.8 6.330297 
" clip-path="url(#p47cd9b1669)" style="fill: none; stroke: #000000; stroke-width: 1.5; stroke-linecap: square"/>
   </g>
   <g id="line2d_25">
    <path d="M 373.214363 293.76 
L 373.214363 293.237401 
L 375.268554 293.237401 
L 375.268554 292.714801 
L 379.510906 292.714801 
L 379.510906 292.192202 
L 380.517577 292.192202 
L 380.517577 291.669602 
L 386.037939 291.669602 
L 386.037939 291.147003 
L 386.785087 291.147003 
L 386.785087 290.624403 
L 386.971079 290.624403 
L 386.971079 290.101804 
L 387.971719 290.101804 
L 387.971719 289.579204 
L 389.884672 289.579204 
L 389.929128 288.534005 
L 390.562823 288.534005 
L 390.562823 288.011406 
L 391.121329 288.011406 
L 391.139725 286.966207 
L 391.604546 286.966207 
L 391.604546 286.443608 
L 391.916356 286.443608 
L 391.916356 285.921008 
L 392.415023 285.921008 
L 392.415023 285.398409 
L 392.959625 285.398409 
L 393.040732 283.83061 
L 393.452511 283.83061 
L 393.452511 283.308011 
L 393.829334 283.308011 
L 393.829334 282.785411 
L 394.351006 282.785411 
L 394.351006 282.262812 
L 394.718713 282.262812 
L 394.718713 281.740212 
L 395.257005 281.740212 
L 395.257005 281.217613 
L 397.122098 281.217613 
L 397.122098 280.695014 
L 397.872822 280.695014 
L 397.90655 279.649815 
L 398.608686 279.649815 
L 398.608686 279.127215 
L 398.936847 279.127215 
L 398.936847 278.604616 
L 399.268574 278.604616 
L 399.328157 277.559417 
L 399.436033 277.559417 
L 399.436033 277.036817 
L 399.832786 277.036817 
L 399.832786 276.514218 
L 399.974356 276.514218 
L 399.974356 275.991618 
L 400.11929 275.991618 
L 400.11929 275.469019 
L 400.382353 275.469019 
L 400.382353 274.946419 
L 400.514849 274.946419 
L 400.614476 273.901221 
L 400.75103 273.901221 
L 400.852548 272.333422 
L 400.909282 272.333422 
L 400.909282 271.810823 
L 401.02789 271.810823 
L 401.02789 271.288223 
L 401.442394 271.288223 
L 401.531662 269.720425 
L 401.658692 269.720425 
L 401.673533 268.675226 
L 401.986524 268.675226 
L 401.986524 268.152626 
L 402.346316 268.152626 
L 402.388407 267.107428 
L 402.482912 267.107428 
L 402.482912 266.584828 
L 402.655287 266.584828 
L 402.656749 265.539629 
L 402.847962 265.539629 
L 402.937673 264.49443 
L 402.97166 264.49443 
L 403.074241 262.404032 
L 403.107031 262.404032 
L 403.135068 261.358833 
L 403.264266 261.358833 
L 403.349131 259.791035 
L 403.409848 259.791035 
L 403.477578 258.223237 
L 403.791985 258.223237 
L 403.888229 256.132839 
L 403.987775 256.132839 
L 404.094011 253.519842 
L 404.183843 253.519842 
L 404.291603 251.429444 
L 404.369129 251.429444 
L 404.463664 250.384245 
L 404.592438 250.384245 
L 404.677785 248.293847 
L 404.98039 248.293847 
L 405.027158 247.248648 
L 405.175622 247.248648 
L 405.17591 246.203449 
L 405.362336 246.203449 
L 405.460247 243.067852 
L 405.491921 243.067852 
L 405.548969 242.022653 
L 405.615212 242.022653 
L 405.69371 239.409656 
L 405.753232 239.409656 
L 405.829465 237.319258 
L 405.874048 237.319258 
L 405.891923 236.274059 
L 406.312833 236.274059 
L 406.397503 234.183662 
L 406.432412 234.183662 
L 406.540595 233.138463 
L 406.611897 233.138463 
L 406.714936 232.093264 
L 406.767553 232.093264 
L 406.86492 230.525465 
L 406.891356 230.525465 
L 406.919512 227.389869 
L 407.057121 227.389869 
L 407.114727 225.82207 
L 407.219929 225.82207 
L 407.326204 224.254272 
L 407.419013 224.254272 
L 407.493064 222.686473 
L 407.58338 222.686473 
L 407.691059 221.118675 
L 407.77662 221.118675 
L 407.82724 219.028277 
L 407.924705 219.028277 
L 408.009242 217.460479 
L 408.163404 217.460479 
L 408.190815 215.89268 
L 408.339745 215.89268 
L 408.355272 214.847482 
L 408.460182 214.847482 
L 408.533092 211.711885 
L 408.575788 211.711885 
L 408.641021 210.666686 
L 408.70824 210.666686 
L 408.781394 209.621487 
L 408.827841 209.621487 
L 408.919672 208.576288 
L 408.958297 208.576288 
L 409.007638 204.395492 
L 409.101031 204.395492 
L 409.174656 202.305095 
L 409.212567 202.305095 
L 409.288615 200.214697 
L 409.365193 200.214697 
L 409.383547 199.169498 
L 409.47957 199.169498 
L 409.582741 197.601699 
L 409.660186 197.601699 
L 409.730682 195.511302 
L 409.784321 195.511302 
L 409.835332 193.420904 
L 409.899312 193.420904 
L 409.958359 191.853105 
L 410.014729 191.853105 
L 410.092274 189.762707 
L 410.3324 189.762707 
L 410.364608 188.717509 
L 410.502746 188.717509 
L 410.558047 186.104511 
L 410.673022 186.104511 
L 410.728602 182.968914 
L 410.873616 182.968914 
L 410.970907 178.788119 
L 411.049547 178.788119 
L 411.101092 177.74292 
L 411.185223 177.74292 
L 411.234847 176.697721 
L 411.315237 176.697721 
L 411.424362 175.129923 
L 411.429639 175.129923 
L 411.523977 173.562124 
L 411.562722 173.562124 
L 411.664981 170.949127 
L 411.674928 170.949127 
L 411.766648 168.33613 
L 411.794335 168.33613 
L 411.868025 166.245732 
L 411.912559 166.245732 
L 411.996048 164.677933 
L 412.113956 164.677933 
L 412.199435 162.064936 
L 412.288523 162.064936 
L 412.390469 159.974538 
L 412.449627 159.974538 
L 412.50821 157.88414 
L 412.561578 157.88414 
L 412.59823 156.838941 
L 412.704225 156.838941 
L 412.799458 154.748544 
L 412.8893 154.748544 
L 412.970454 152.658146 
L 413.029022 152.658146 
L 413.109194 150.567748 
L 413.147239 150.567748 
L 413.250029 148.99995 
L 413.266577 148.99995 
L 413.374467 145.864353 
L 413.480248 145.864353 
L 413.523206 144.296554 
L 413.617833 144.296554 
L 413.720263 142.206157 
L 413.739707 142.206157 
L 413.840309 138.54796 
L 413.851556 138.54796 
L 413.936573 135.412364 
L 413.999061 135.412364 
L 414.086634 133.321966 
L 414.121504 133.321966 
L 414.209215 131.754167 
L 414.239112 131.754167 
L 414.300706 129.66377 
L 414.374656 129.66377 
L 414.484789 128.618571 
L 414.54353 128.618571 
L 414.588867 126.528173 
L 414.656756 126.528173 
L 414.657238 125.482974 
L 414.818993 125.482974 
L 414.88948 122.347377 
L 414.937532 122.347377 
L 415.005142 120.256979 
L 415.133861 120.256979 
L 415.206227 118.689181 
L 415.278621 118.689181 
L 415.369959 116.598783 
L 415.422816 116.598783 
L 415.529818 114.508385 
L 415.60559 114.508385 
L 415.716664 112.417987 
L 415.780697 112.417987 
L 415.854002 110.32759 
L 415.993287 110.32759 
L 416.073718 108.237192 
L 416.123489 108.237192 
L 416.230746 104.578995 
L 416.251328 104.578995 
L 416.340209 101.965998 
L 416.373224 101.965998 
L 416.411915 99.353001 
L 416.511051 99.353001 
L 416.582587 97.262603 
L 416.645721 97.262603 
L 416.733039 92.559208 
L 416.76129 92.559208 
L 416.818317 91.514009 
L 416.914088 91.514009 
L 416.960698 89.946211 
L 417.04028 89.946211 
L 417.134301 88.378412 
L 417.153122 88.378412 
L 417.18522 86.810614 
L 417.279957 86.810614 
L 417.383767 84.197617 
L 417.433986 84.197617 
L 417.533274 82.629818 
L 417.547296 82.629818 
L 417.565672 81.06202 
L 417.702156 81.06202 
L 417.702156 80.53942 
L 417.84293 80.53942 
L 417.906862 78.971622 
L 417.987112 78.971622 
L 418.079128 76.881224 
L 418.169448 76.881224 
L 418.271774 73.745627 
L 418.302387 73.745627 
L 418.412457 71.13263 
L 418.484844 71.13263 
L 418.529902 69.042232 
L 418.626316 69.042232 
L 418.72722 66.429235 
L 418.763215 66.429235 
L 418.870774 61.72584 
L 418.908701 61.72584 
L 419.01235 58.590243 
L 419.040391 58.590243 
L 419.109927 56.499845 
L 419.165754 56.499845 
L 419.209637 53.364248 
L 419.312545 53.364248 
L 419.400097 50.751251 
L 419.452329 50.751251 
L 419.522155 49.706052 
L 419.579193 49.706052 
L 419.687903 48.660853 
L 419.737765 48.660853 
L 419.844254 45.525257 
L 419.86696 45.525257 
L 419.971506 43.434859 
L 419.995727 43.434859 
L 419.995727 42.912259 
L 420.186873 42.912259 
L 420.241799 41.344461 
L 420.29931 41.344461 
L 420.407955 38.731464 
L 420.553507 38.731464 
L 420.655223 36.641066 
L 420.667649 36.641066 
L 420.667649 36.118466 
L 420.794625 36.118466 
L 420.877553 35.073267 
L 420.920804 35.073267 
L 421.008257 34.028068 
L 421.03958 34.028068 
L 421.03958 33.505469 
L 421.196938 33.505469 
L 421.277585 32.46027 
L 421.365061 32.46027 
L 421.365061 31.937671 
L 421.568084 31.937671 
L 421.652634 30.892472 
L 421.702496 30.892472 
L 421.734955 29.847273 
L 421.954088 29.847273 
L 421.954088 29.324673 
L 422.112822 29.324673 
L 422.112822 28.802074 
L 422.542596 28.802074 
L 422.542596 28.279474 
L 422.722396 28.279474 
L 422.777957 27.234275 
L 422.843298 27.234275 
L 422.843298 26.711676 
L 423.186556 26.711676 
L 423.216613 25.666477 
L 423.408227 25.666477 
L 423.408227 25.143878 
L 423.606072 25.143878 
L 423.606072 24.621278 
L 423.759976 24.621278 
L 423.826474 23.576079 
L 424.510271 23.576079 
L 424.510271 23.05348 
L 424.693215 23.05348 
L 424.693215 22.53088 
L 424.980596 22.53088 
L 425.079737 21.485681 
L 425.588437 21.485681 
L 425.588437 20.963082 
L 425.842131 20.963082 
L 425.842131 20.440482 
L 426.114659 20.440482 
L 426.114659 19.917883 
L 426.336599 19.917883 
L 426.336599 19.395284 
L 426.476593 19.395284 
L 426.476593 18.872684 
L 426.945123 18.872684 
L 426.94571 17.827485 
L 429.365442 17.827485 
L 429.424068 16.782286 
L 429.489607 16.782286 
L 429.525628 15.737087 
L 429.646104 15.737087 
L 429.646104 15.214488 
L 430.044978 15.214488 
L 430.044978 14.691888 
L 430.483623 14.691888 
L 430.483623 14.169289 
L 430.607545 14.169289 
L 430.607545 13.646689 
L 430.718672 13.646689 
L 430.718672 13.12409 
L 431.959678 13.12409 
L 431.959678 12.601491 
L 432.075621 12.601491 
L 432.075621 12.078891 
L 433.141502 12.078891 
L 433.143902 11.033692 
L 433.670987 11.033692 
L 433.670987 10.511093 
L 435.746802 10.511093 
L 435.746802 9.988493 
L 437.245383 9.988493 
L 437.245383 9.465894 
L 437.633017 9.465894 
L 437.633017 8.943294 
L 438.214975 8.943294 
L 438.214975 8.420695 
L 439.811726 8.420695 
L 439.811726 7.898095 
L 441.753244 7.898095 
L 441.753244 7.375496 
L 444.287471 7.375496 
L 444.287471 6.852896 
L 445.574398 6.852896 
L 445.574398 6.330297 
L 445.574398 6.330297 
L 460.8 6.330297 
L 460.8 6.330297 
" clip-path="url(#p47cd9b1669)" style="fill: none; stroke: #00bfbf; stroke-width: 1.5; stroke-linecap: square"/>
   </g>
   <g id="line2d_26">
    <path d="M 373.214363 293.76 
L 373.214363 293.237401 
L 375.268554 293.237401 
L 375.268554 292.714801 
L 379.510906 292.714801 
L 379.510906 292.192202 
L 380.517577 292.192202 
L 380.517577 291.669602 
L 386.037939 291.669602 
L 386.037939 291.147003 
L 386.785087 291.147003 
L 386.785087 290.624403 
L 386.971079 290.624403 
L 386.971079 290.101804 
L 387.971719 290.101804 
L 387.971719 289.579204 
L 389.883856 289.579204 
L 389.929128 288.534005 
L 390.562823 288.534005 
L 390.562823 288.011406 
L 391.121329 288.011406 
L 391.139725 286.966207 
L 391.604546 286.966207 
L 391.604546 286.443608 
L 391.916356 286.443608 
L 391.916356 285.921008 
L 392.415023 285.921008 
L 392.415023 285.398409 
L 392.959625 285.398409 
L 393.040732 283.83061 
L 393.452511 283.83061 
L 393.452511 283.308011 
L 393.829334 283.308011 
L 393.829334 282.785411 
L 394.351006 282.785411 
L 394.351006 282.262812 
L 394.718713 282.262812 
L 394.718713 281.740212 
L 395.257005 281.740212 
L 395.257005 281.217613 
L 397.122098 281.217613 
L 397.122098 280.695014 
L 397.872822 280.695014 
L 397.90655 279.649815 
L 398.608686 279.649815 
L 398.608686 279.127215 
L 398.936847 279.127215 
L 398.936847 278.604616 
L 399.268574 278.604616 
L 399.328157 277.559417 
L 399.436033 277.559417 
L 399.436033 277.036817 
L 399.832786 277.036817 
L 399.832786 276.514218 
L 399.974356 276.514218 
L 399.974356 275.991618 
L 400.11929 275.991618 
L 400.11929 275.469019 
L 400.382353 275.469019 
L 400.382353 274.946419 
L 400.514849 274.946419 
L 400.614476 273.901221 
L 400.711908 273.901221 
L 400.75103 272.856022 
L 400.852548 272.856022 
L 400.909282 271.810823 
L 401.02789 271.810823 
L 401.02789 271.288223 
L 401.442394 271.288223 
L 401.531662 269.720425 
L 401.658692 269.720425 
L 401.673533 268.675226 
L 401.986524 268.675226 
L 401.986524 268.152626 
L 402.346316 268.152626 
L 402.388407 267.107428 
L 402.482912 267.107428 
L 402.482912 266.584828 
L 402.655287 266.584828 
L 402.656749 265.539629 
L 402.847962 265.539629 
L 402.937673 264.49443 
L 402.97166 264.49443 
L 403.074241 262.404032 
L 403.107031 262.404032 
L 403.135068 261.358833 
L 403.264266 261.358833 
L 403.349131 259.791035 
L 403.409848 259.791035 
L 403.477578 258.223237 
L 403.791985 258.223237 
L 403.888229 256.132839 
L 403.987775 256.132839 
L 404.094011 253.519842 
L 404.183843 253.519842 
L 404.291603 251.429444 
L 404.369129 251.429444 
L 404.463664 250.384245 
L 404.592438 250.384245 
L 404.677785 248.293847 
L 404.98039 248.293847 
L 405.027158 247.248648 
L 405.175622 247.248648 
L 405.17591 246.203449 
L 405.362336 246.203449 
L 405.460247 243.067852 
L 405.491921 243.067852 
L 405.548969 242.022653 
L 405.615212 242.022653 
L 405.69371 239.409656 
L 405.753232 239.409656 
L 405.829465 237.319258 
L 405.874048 237.319258 
L 405.891923 236.274059 
L 406.312833 236.274059 
L 406.397503 234.183662 
L 406.432412 234.183662 
L 406.540595 233.138463 
L 406.611897 233.138463 
L 406.714936 232.093264 
L 406.767553 232.093264 
L 406.86492 230.525465 
L 406.891356 230.525465 
L 406.919512 227.389869 
L 407.057121 227.389869 
L 407.114727 225.82207 
L 407.2056 225.82207 
L 407.219929 224.776871 
L 407.326204 224.776871 
L 407.419013 223.731672 
L 407.446671 223.731672 
L 407.493064 222.686473 
L 407.58338 222.686473 
L 407.691059 221.118675 
L 407.77662 221.118675 
L 407.82724 219.028277 
L 407.924705 219.028277 
L 408.009242 217.460479 
L 408.163404 217.460479 
L 408.190815 215.89268 
L 408.339745 215.89268 
L 408.355272 214.847482 
L 408.460182 214.847482 
L 408.533092 211.711885 
L 408.575788 211.711885 
L 408.641021 210.666686 
L 408.70824 210.666686 
L 408.781394 209.621487 
L 408.827841 209.621487 
L 408.919672 208.576288 
L 408.958297 208.576288 
L 409.007638 204.395492 
L 409.101031 204.395492 
L 409.174656 202.305095 
L 409.212567 202.305095 
L 409.288615 200.214697 
L 409.365193 200.214697 
L 409.383547 199.169498 
L 409.47957 199.169498 
L 409.582741 197.601699 
L 409.660186 197.601699 
L 409.730682 195.511302 
L 409.784321 195.511302 
L 409.835332 193.420904 
L 409.899312 193.420904 
L 409.958359 191.853105 
L 410.014729 191.853105 
L 410.092274 189.762707 
L 410.3324 189.762707 
L 410.364608 188.717509 
L 410.502746 188.717509 
L 410.558047 186.104511 
L 410.673022 186.104511 
L 410.728602 182.968914 
L 410.873616 182.968914 
L 410.970907 178.788119 
L 411.049547 178.788119 
L 411.101092 177.74292 
L 411.185223 177.74292 
L 411.234847 176.697721 
L 411.315237 176.697721 
L 411.424362 175.129923 
L 411.429639 175.129923 
L 411.523977 173.562124 
L 411.562722 173.562124 
L 411.664981 170.949127 
L 411.674928 170.949127 
L 411.766648 168.33613 
L 411.794335 168.33613 
L 411.868025 166.245732 
L 411.912559 166.245732 
L 411.996048 164.677933 
L 412.113956 164.677933 
L 412.199435 162.064936 
L 412.288523 162.064936 
L 412.390469 159.974538 
L 412.449627 159.974538 
L 412.50821 157.88414 
L 412.561578 157.88414 
L 412.59823 156.838941 
L 412.704225 156.838941 
L 412.799458 154.748544 
L 412.8893 154.748544 
L 412.970454 152.658146 
L 413.029022 152.658146 
L 413.109194 150.567748 
L 413.147239 150.567748 
L 413.250029 148.99995 
L 413.266577 148.99995 
L 413.374467 145.864353 
L 413.480248 145.864353 
L 413.523206 144.296554 
L 413.617833 144.296554 
L 413.720263 142.206157 
L 413.739707 142.206157 
L 413.840309 138.54796 
L 413.851556 138.54796 
L 413.936573 135.412364 
L 413.999061 135.412364 
L 414.086634 132.799366 
L 414.121504 132.799366 
L 414.171499 131.754167 
L 414.239112 131.754167 
L 414.300706 129.66377 
L 414.374656 129.66377 
L 414.484789 128.618571 
L 414.54353 128.618571 
L 414.588867 126.528173 
L 414.656756 126.528173 
L 414.657238 125.482974 
L 414.818993 125.482974 
L 414.88948 122.347377 
L 414.937532 122.347377 
L 415.005142 120.256979 
L 415.133861 120.256979 
L 415.206227 118.689181 
L 415.278621 118.689181 
L 415.369959 116.598783 
L 415.422816 116.598783 
L 415.529818 114.508385 
L 415.60559 114.508385 
L 415.716664 112.417987 
L 415.780697 112.417987 
L 415.854002 110.32759 
L 415.993287 110.32759 
L 416.073718 108.237192 
L 416.123489 108.237192 
L 416.230746 104.578995 
L 416.251328 104.578995 
L 416.340209 101.965998 
L 416.373224 101.965998 
L 416.411915 99.353001 
L 416.511051 99.353001 
L 416.582587 97.262603 
L 416.645721 97.262603 
L 416.733039 92.559208 
L 416.76129 92.559208 
L 416.818317 91.514009 
L 416.914088 91.514009 
L 416.960698 89.946211 
L 417.04028 89.946211 
L 417.134301 88.378412 
L 417.153122 88.378412 
L 417.18522 86.810614 
L 417.279957 86.810614 
L 417.383767 84.197617 
L 417.433986 84.197617 
L 417.533274 82.629818 
L 417.547296 82.629818 
L 417.565672 81.06202 
L 417.702156 81.06202 
L 417.702156 80.53942 
L 417.84293 80.53942 
L 417.906862 78.971622 
L 417.987112 78.971622 
L 418.079128 76.881224 
L 418.169448 76.881224 
L 418.271774 73.745627 
L 418.302387 73.745627 
L 418.412457 71.13263 
L 418.484844 71.13263 
L 418.529902 69.042232 
L 418.626316 69.042232 
L 418.72722 66.429235 
L 418.763215 66.429235 
L 418.870774 61.72584 
L 418.908701 61.72584 
L 419.01235 58.590243 
L 419.040391 58.590243 
L 419.109927 56.499845 
L 419.165754 56.499845 
L 419.209637 53.364248 
L 419.312545 53.364248 
L 419.400097 50.751251 
L 419.452329 50.751251 
L 419.522155 49.706052 
L 419.579193 49.706052 
L 419.687903 48.660853 
L 419.737765 48.660853 
L 419.844254 45.525257 
L 419.86696 45.525257 
L 419.971506 43.434859 
L 419.995727 43.434859 
L 419.995727 42.912259 
L 420.186873 42.912259 
L 420.241799 41.344461 
L 420.29931 41.344461 
L 420.407955 38.731464 
L 420.553507 38.731464 
L 420.655223 36.641066 
L 420.667649 36.641066 
L 420.667649 36.118466 
L 420.794625 36.118466 
L 420.877553 35.073267 
L 420.920804 35.073267 
L 421.008257 34.028068 
L 421.03958 34.028068 
L 421.03958 33.505469 
L 421.196938 33.505469 
L 421.277585 32.46027 
L 421.365061 32.46027 
L 421.365061 31.937671 
L 421.568084 31.937671 
L 421.652634 30.892472 
L 421.702496 30.892472 
L 421.734955 29.847273 
L 421.954088 29.847273 
L 421.954088 29.324673 
L 422.112822 29.324673 
L 422.112822 28.802074 
L 422.542596 28.802074 
L 422.542596 28.279474 
L 422.722396 28.279474 
L 422.777957 27.234275 
L 422.843298 27.234275 
L 422.843298 26.711676 
L 423.186556 26.711676 
L 423.216613 25.666477 
L 423.408227 25.666477 
L 423.408227 25.143878 
L 423.606072 25.143878 
L 423.606072 24.621278 
L 423.759976 24.621278 
L 423.826474 23.576079 
L 424.510271 23.576079 
L 424.510271 23.05348 
L 424.693215 23.05348 
L 424.693215 22.53088 
L 424.980596 22.53088 
L 425.079737 21.485681 
L 425.588079 21.485681 
L 425.588079 20.963082 
L 425.842131 20.963082 
L 425.842131 20.440482 
L 426.114659 20.440482 
L 426.114659 19.917883 
L 426.336599 19.917883 
L 426.336599 19.395284 
L 426.476593 19.395284 
L 426.476593 18.872684 
L 426.945123 18.872684 
L 426.94571 17.827485 
L 429.365442 17.827485 
L 429.424068 16.782286 
L 429.489607 16.782286 
L 429.525628 15.737087 
L 429.646104 15.737087 
L 429.646104 15.214488 
L 430.044978 15.214488 
L 430.044978 14.691888 
L 430.324467 14.691888 
L 430.324467 14.169289 
L 430.483623 14.169289 
L 430.483623 13.646689 
L 430.607545 13.646689 
L 430.607545 13.12409 
L 431.959678 13.12409 
L 431.959678 12.601491 
L 432.075621 12.601491 
L 432.075621 12.078891 
L 432.876625 12.078891 
L 432.876625 11.556292 
L 433.141502 11.556292 
L 433.141502 11.033692 
L 433.670987 11.033692 
L 433.670987 10.511093 
L 435.746802 10.511093 
L 435.746802 9.988493 
L 437.245383 9.988493 
L 437.245383 9.465894 
L 437.63045 9.465894 
L 437.63045 8.943294 
L 437.788698 8.943294 
L 437.788698 8.420695 
L 439.811726 8.420695 
L 439.811726 7.898095 
L 441.753244 7.898095 
L 441.753244 7.375496 
L 444.287471 7.375496 
L 444.287471 6.852896 
L 445.574398 6.852896 
L 445.574398 6.330297 
L 445.574398 6.330297 
L 460.8 6.330297 
L 460.8 6.330297 
" clip-path="url(#p47cd9b1669)" style="fill: none; stroke: #bf00bf; stroke-width: 1.5; stroke-linecap: square"/>
   </g>
   <g id="patch_3">
    <path d="M 0 293.76 
L 0 3.456 
" style="fill: none; stroke: #000000; stroke-width: 0.8; stroke-linejoin: miter; stroke-linecap: square"/>
   </g>
   <g id="patch_4">
    <path d="M 460.8 293.76 
L 460.8 3.456 
" style="fill: none; stroke: #000000; stroke-width: 0.8; stroke-linejoin: miter; stroke-linecap: square"/>
   </g>
   <g id="patch_5">
    <path d="M 0 293.76 
L 460.8 293.76 
" style="fill: none; stroke: #000000; stroke-width: 0.8; stroke-linejoin: miter; stroke-linecap: square"/>
   </g>
   <g id="patch_6">
    <path d="M 0 3.456 
L 460.8 3.456 
" style="fill: none; stroke: #000000; stroke-width: 0.8; stroke-linejoin: miter; stroke-linecap: square"/>
   </g>
   <g id="text_6">
    <!-- {f1-f55}, 20-D -->
    <g transform="translate(305.884 287.95392) scale(0.2 -0.2)">
     <defs>
      <path id="DejaVuSans-7b" d="M 3272 -594 
L 3272 -1044 
L 3078 -1044 
Q 2300 -1044 2036 -812 
Q 1772 -581 1772 109 
L 1772 856 
Q 1772 1328 1603 1509 
Q 1434 1691 991 1691 
L 800 1691 
L 800 2138 
L 991 2138 
Q 1438 2138 1605 2317 
Q 1772 2497 1772 2963 
L 1772 3713 
Q 1772 4403 2036 4633 
Q 2300 4863 3078 4863 
L 3272 4863 
L 3272 4416 
L 3059 4416 
Q 2619 4416 2484 4278 
Q 2350 4141 2350 3700 
L 2350 2925 
Q 2350 2434 2208 2212 
Q 2066 1991 1722 1913 
Q 2069 1828 2209 1606 
Q 2350 1384 2350 897 
L 2350 122 
Q 2350 -319 2484 -456 
Q 2619 -594 3059 -594 
L 3272 -594 
z
" transform="scale(0.015625)"/>
      <path id="DejaVuSans-35" d="M 691 4666 
L 3169 4666 
L 3169 4134 
L 1269 4134 
L 1269 2991 
Q 1406 3038 1543 3061 
Q 1681 3084 1819 3084 
Q 2600 3084 3056 2656 
Q 3513 2228 3513 1497 
Q 3513 744 3044 326 
Q 2575 -91 1722 -91 
Q 1428 -91 1123 -41 
Q 819 9 494 109 
L 494 744 
Q 775 591 1075 516 
Q 1375 441 1709 441 
Q 2250 441 2565 725 
Q 2881 1009 2881 1497 
Q 2881 1984 2565 2268 
Q 2250 2553 1709 2553 
Q 1456 2553 1204 2497 
Q 953 2441 691 2322 
L 691 4666 
z
" transform="scale(0.015625)"/>
      <path id="DejaVuSans-7d" d="M 800 -594 
L 1019 -594 
Q 1456 -594 1589 -459 
Q 1722 -325 1722 122 
L 1722 897 
Q 1722 1384 1862 1606 
Q 2003 1828 2350 1913 
Q 2003 1991 1862 2212 
Q 1722 2434 1722 2925 
L 1722 3700 
Q 1722 4144 1589 4280 
Q 1456 4416 1019 4416 
L 800 4416 
L 800 4863 
L 997 4863 
Q 1775 4863 2036 4633 
Q 2297 4403 2297 3713 
L 2297 2963 
Q 2297 2497 2465 2317 
Q 2634 2138 3078 2138 
L 3272 2138 
L 3272 1691 
L 3078 1691 
Q 2634 1691 2465 1509 
Q 2297 1328 2297 856 
L 2297 109 
Q 2297 -581 2036 -812 
Q 1775 -1044 997 -1044 
L 800 -1044 
L 800 -594 
z
" transform="scale(0.015625)"/>
      <path id="DejaVuSans-2c" d="M 750 794 
L 1409 794 
L 1409 256 
L 897 -744 
L 494 -744 
L 750 256 
L 750 794 
z
" transform="scale(0.015625)"/>
     </defs>
     <use xlink:href="#DejaVuSans-7b"/>
     <use xlink:href="#DejaVuSans-66" x="63.623047"/>
     <use xlink:href="#DejaVuSans-31" x="98.828125"/>
     <use xlink:href="#DejaVuSans-2d" x="162.451172"/>
     <use xlink:href="#DejaVuSans-66" x="198.535156"/>
     <use xlink:href="#DejaVuSans-35" x="233.740234"/>
     <use xlink:href="#DejaVuSans-35" x="297.363281"/>
     <use xlink:href="#DejaVuSans-7d" x="360.986328"/>
     <use xlink:href="#DejaVuSans-2c" x="424.609375"/>
     <use xlink:href="#DejaVuSans-20" x="456.396484"/>
     <use xlink:href="#DejaVuSans-32" x="488.183594"/>
     <use xlink:href="#DejaVuSans-30" x="551.806641"/>
     <use xlink:href="#DejaVuSans-2d" x="615.429688"/>
     <use xlink:href="#DejaVuSans-44" x="651.513672"/>
    </g>
   </g>
   <g id="text_7">
    <!-- v2.6.3, hv-hash=ff0e71e8cd978373 -->
    <g style="fill: #808080" transform="translate(140.134375 288.777272) scale(0.1 -0.1)">
     <defs>
      <path id="DejaVuSans-76" d="M 191 3500 
L 800 3500 
L 1894 563 
L 2988 3500 
L 3597 3500 
L 2284 0 
L 1503 0 
L 191 3500 
z
" transform="scale(0.015625)"/>
      <path id="DejaVuSans-2e" d="M 684 794 
L 1344 794 
L 1344 0 
L 684 0 
L 684 794 
z
" transform="scale(0.015625)"/>
      <path id="DejaVuSans-33" d="M 2597 2516 
Q 3050 2419 3304 2112 
Q 3559 1806 3559 1356 
Q 3559 666 3084 287 
Q 2609 -91 1734 -91 
Q 1441 -91 1130 -33 
Q 819 25 488 141 
L 488 750 
Q 750 597 1062 519 
Q 1375 441 1716 441 
Q 2309 441 2620 675 
Q 2931 909 2931 1356 
Q 2931 1769 2642 2001 
Q 2353 2234 1838 2234 
L 1294 2234 
L 1294 2753 
L 1863 2753 
Q 2328 2753 2575 2939 
Q 2822 3125 2822 3475 
Q 2822 3834 2567 4026 
Q 2313 4219 1838 4219 
Q 1578 4219 1281 4162 
Q 984 4106 628 3988 
L 628 4550 
Q 988 4650 1302 4700 
Q 1616 4750 1894 4750 
Q 2613 4750 3031 4423 
Q 3450 4097 3450 3541 
Q 3450 3153 3228 2886 
Q 3006 2619 2597 2516 
z
" transform="scale(0.015625)"/>
      <path id="DejaVuSans-68" d="M 3513 2113 
L 3513 0 
L 2938 0 
L 2938 2094 
Q 2938 2591 2744 2837 
Q 2550 3084 2163 3084 
Q 1697 3084 1428 2787 
Q 1159 2491 1159 1978 
L 1159 0 
L 581 0 
L 581 4863 
L 1159 4863 
L 1159 2956 
Q 1366 3272 1645 3428 
Q 1925 3584 2291 3584 
Q 2894 3584 3203 3211 
Q 3513 2838 3513 2113 
z
" transform="scale(0.015625)"/>
      <path id="DejaVuSans-61" d="M 2194 1759 
Q 1497 1759 1228 1600 
Q 959 1441 959 1056 
Q 959 750 1161 570 
Q 1363 391 1709 391 
Q 2188 391 2477 730 
Q 2766 1069 2766 1631 
L 2766 1759 
L 2194 1759 
z
M 3341 1997 
L 3341 0 
L 2766 0 
L 2766 531 
Q 2569 213 2275 61 
Q 1981 -91 1556 -91 
Q 1019 -91 701 211 
Q 384 513 384 1019 
Q 384 1609 779 1909 
Q 1175 2209 1959 2209 
L 2766 2209 
L 2766 2266 
Q 2766 2663 2505 2880 
Q 2244 3097 1772 3097 
Q 1472 3097 1187 3025 
Q 903 2953 641 2809 
L 641 3341 
Q 956 3463 1253 3523 
Q 1550 3584 1831 3584 
Q 2591 3584 2966 3190 
Q 3341 2797 3341 1997 
z
" transform="scale(0.015625)"/>
      <path id="DejaVuSans-73" d="M 2834 3397 
L 2834 2853 
Q 2591 2978 2328 3040 
Q 2066 3103 1784 3103 
Q 1356 3103 1142 2972 
Q 928 2841 928 2578 
Q 928 2378 1081 2264 
Q 1234 2150 1697 2047 
L 1894 2003 
Q 2506 1872 2764 1633 
Q 3022 1394 3022 966 
Q 3022 478 2636 193 
Q 2250 -91 1575 -91 
Q 1294 -91 989 -36 
Q 684 19 347 128 
L 347 722 
Q 666 556 975 473 
Q 1284 391 1588 391 
Q 1994 391 2212 530 
Q 2431 669 2431 922 
Q 2431 1156 2273 1281 
Q 2116 1406 1581 1522 
L 1381 1569 
Q 847 1681 609 1914 
Q 372 2147 372 2553 
Q 372 3047 722 3315 
Q 1072 3584 1716 3584 
Q 2034 3584 2315 3537 
Q 2597 3491 2834 3397 
z
" transform="scale(0.015625)"/>
      <path id="DejaVuSans-3d" d="M 678 2906 
L 4684 2906 
L 4684 2381 
L 678 2381 
L 678 2906 
z
M 678 1631 
L 4684 1631 
L 4684 1100 
L 678 1100 
L 678 1631 
z
" transform="scale(0.015625)"/>
      <path id="DejaVuSans-65" d="M 3597 1894 
L 3597 1613 
L 953 1613 
Q 991 1019 1311 708 
Q 1631 397 2203 397 
Q 2534 397 2845 478 
Q 3156 559 3463 722 
L 3463 178 
Q 3153 47 2828 -22 
Q 2503 -91 2169 -91 
Q 1331 -91 842 396 
Q 353 884 353 1716 
Q 353 2575 817 3079 
Q 1281 3584 2069 3584 
Q 2775 3584 3186 3129 
Q 3597 2675 3597 1894 
z
M 3022 2063 
Q 3016 2534 2758 2815 
Q 2500 3097 2075 3097 
Q 1594 3097 1305 2825 
Q 1016 2553 972 2059 
L 3022 2063 
z
" transform="scale(0.015625)"/>
      <path id="DejaVuSans-37" d="M 525 4666 
L 3525 4666 
L 3525 4397 
L 1831 0 
L 1172 0 
L 2766 4134 
L 525 4134 
L 525 4666 
z
" transform="scale(0.015625)"/>
      <path id="DejaVuSans-38" d="M 2034 2216 
Q 1584 2216 1326 1975 
Q 1069 1734 1069 1313 
Q 1069 891 1326 650 
Q 1584 409 2034 409 
Q 2484 409 2743 651 
Q 3003 894 3003 1313 
Q 3003 1734 2745 1975 
Q 2488 2216 2034 2216 
z
M 1403 2484 
Q 997 2584 770 2862 
Q 544 3141 544 3541 
Q 544 4100 942 4425 
Q 1341 4750 2034 4750 
Q 2731 4750 3128 4425 
Q 3525 4100 3525 3541 
Q 3525 3141 3298 2862 
Q 3072 2584 2669 2484 
Q 3125 2378 3379 2068 
Q 3634 1759 3634 1313 
Q 3634 634 3220 271 
Q 2806 -91 2034 -91 
Q 1263 -91 848 271 
Q 434 634 434 1313 
Q 434 1759 690 2068 
Q 947 2378 1403 2484 
z
M 1172 3481 
Q 1172 3119 1398 2916 
Q 1625 2713 2034 2713 
Q 2441 2713 2670 2916 
Q 2900 3119 2900 3481 
Q 2900 3844 2670 4047 
Q 2441 4250 2034 4250 
Q 1625 4250 1398 4047 
Q 1172 3844 1172 3481 
z
" transform="scale(0.015625)"/>
      <path id="DejaVuSans-63" d="M 3122 3366 
L 3122 2828 
Q 2878 2963 2633 3030 
Q 2388 3097 2138 3097 
Q 1578 3097 1268 2742 
Q 959 2388 959 1747 
Q 959 1106 1268 751 
Q 1578 397 2138 397 
Q 2388 397 2633 464 
Q 2878 531 3122 666 
L 3122 134 
Q 2881 22 2623 -34 
Q 2366 -91 2075 -91 
Q 1284 -91 818 406 
Q 353 903 353 1747 
Q 353 2603 823 3093 
Q 1294 3584 2113 3584 
Q 2378 3584 2631 3529 
Q 2884 3475 3122 3366 
z
" transform="scale(0.015625)"/>
      <path id="DejaVuSans-64" d="M 2906 2969 
L 2906 4863 
L 3481 4863 
L 3481 0 
L 2906 0 
L 2906 525 
Q 2725 213 2448 61 
Q 2172 -91 1784 -91 
Q 1150 -91 751 415 
Q 353 922 353 1747 
Q 353 2572 751 3078 
Q 1150 3584 1784 3584 
Q 2172 3584 2448 3432 
Q 2725 3281 2906 2969 
z
M 947 1747 
Q 947 1113 1208 752 
Q 1469 391 1925 391 
Q 2381 391 2643 752 
Q 2906 1113 2906 1747 
Q 2906 2381 2643 2742 
Q 2381 3103 1925 3103 
Q 1469 3103 1208 2742 
Q 947 2381 947 1747 
z
" transform="scale(0.015625)"/>
      <path id="DejaVuSans-39" d="M 703 97 
L 703 672 
Q 941 559 1184 500 
Q 1428 441 1663 441 
Q 2288 441 2617 861 
Q 2947 1281 2994 2138 
Q 2813 1869 2534 1725 
Q 2256 1581 1919 1581 
Q 1219 1581 811 2004 
Q 403 2428 403 3163 
Q 403 3881 828 4315 
Q 1253 4750 1959 4750 
Q 2769 4750 3195 4129 
Q 3622 3509 3622 2328 
Q 3622 1225 3098 567 
Q 2575 -91 1691 -91 
Q 1453 -91 1209 -44 
Q 966 3 703 97 
z
M 1959 2075 
Q 2384 2075 2632 2365 
Q 2881 2656 2881 3163 
Q 2881 3666 2632 3958 
Q 2384 4250 1959 4250 
Q 1534 4250 1286 3958 
Q 1038 3666 1038 3163 
Q 1038 2656 1286 2365 
Q 1534 2075 1959 2075 
z
" transform="scale(0.015625)"/>
     </defs>
     <use xlink:href="#DejaVuSans-76"/>
     <use xlink:href="#DejaVuSans-32" x="59.179688"/>
     <use xlink:href="#DejaVuSans-2e" x="122.802734"/>
     <use xlink:href="#DejaVuSans-36" x="154.589844"/>
     <use xlink:href="#DejaVuSans-2e" x="218.212891"/>
     <use xlink:href="#DejaVuSans-33" x="250"/>
     <use xlink:href="#DejaVuSans-2c" x="313.623047"/>
     <use xlink:href="#DejaVuSans-20" x="345.410156"/>
     <use xlink:href="#DejaVuSans-68" x="377.197266"/>
     <use xlink:href="#DejaVuSans-76" x="440.576172"/>
     <use xlink:href="#DejaVuSans-2d" x="497.130859"/>
     <use xlink:href="#DejaVuSans-68" x="533.214844"/>
     <use xlink:href="#DejaVuSans-61" x="596.59375"/>
     <use xlink:href="#DejaVuSans-73" x="657.873047"/>
     <use xlink:href="#DejaVuSans-68" x="709.972656"/>
     <use xlink:href="#DejaVuSans-3d" x="773.351562"/>
     <use xlink:href="#DejaVuSans-66" x="857.140625"/>
     <use xlink:href="#DejaVuSans-66" x="892.345703"/>
     <use xlink:href="#DejaVuSans-30" x="927.550781"/>
     <use xlink:href="#DejaVuSans-65" x="991.173828"/>
     <use xlink:href="#DejaVuSans-37" x="1052.697266"/>
     <use xlink:href="#DejaVuSans-31" x="1116.320312"/>
     <use xlink:href="#DejaVuSans-65" x="1179.943359"/>
     <use xlink:href="#DejaVuSans-38" x="1241.466797"/>
     <use xlink:href="#DejaVuSans-63" x="1305.089844"/>
     <use xlink:href="#DejaVuSans-64" x="1360.070312"/>
     <use xlink:href="#DejaVuSans-39" x="1423.546875"/>
     <use xlink:href="#DejaVuSans-37" x="1487.169922"/>
     <use xlink:href="#DejaVuSans-38" x="1550.792969"/>
     <use xlink:href="#DejaVuSans-33" x="1614.416016"/>
     <use xlink:href="#DejaVuSans-37" x="1678.039062"/>
     <use xlink:href="#DejaVuSans-33" x="1741.662109"/>
    </g>
   </g>
  </g>
 </g>
 <defs>
  <clipPath id="p47cd9b1669">
   <rect x="0" y="3.456" width="460.8" height="290.304"/>
  </clipPath>
 </defs>
</svg>
